<mxfile host="app.diagrams.net" agent="Mozilla/5.0 (Windows NT 10.0; Win64; x64) AppleWebKit/537.36 (KHTML, like Gecko) Chrome/135.0.0.0 Safari/537.36" version="26.2.14">
  <diagram name="Page-1" id="iNONnnXZDmuIxOTakELD">
    <mxGraphModel dx="2194" dy="1143" grid="1" gridSize="10" guides="1" tooltips="1" connect="1" arrows="1" fold="1" page="1" pageScale="1" pageWidth="850" pageHeight="1100" math="0" shadow="0">
      <root>
        <mxCell id="0" />
        <mxCell id="1" parent="0" />
        <mxCell id="mDin6mMPrwB7ljJCuVws-1" value="" style="rounded=0;whiteSpace=wrap;html=1;fontSize=16;" vertex="1" parent="1">
          <mxGeometry x="60" y="145" width="1490" height="810" as="geometry" />
        </mxCell>
        <mxCell id="mDin6mMPrwB7ljJCuVws-2" value="&lt;u&gt;&lt;font style=&quot;font-size: 22px;&quot;&gt;Movie recommender System&lt;/font&gt;&lt;/u&gt;" style="text;html=1;align=center;verticalAlign=middle;whiteSpace=wrap;rounded=0;fontSize=16;" vertex="1" parent="1">
          <mxGeometry x="647.2" y="164.5" width="292.8" height="45.5" as="geometry" />
        </mxCell>
        <mxCell id="mDin6mMPrwB7ljJCuVws-5" value="" style="rounded=0;whiteSpace=wrap;html=1;fontSize=16;" vertex="1" parent="1">
          <mxGeometry x="110" y="410" width="200" height="340" as="geometry" />
        </mxCell>
        <mxCell id="mDin6mMPrwB7ljJCuVws-6" value="&lt;div&gt;&lt;font&gt;&lt;b&gt;1. ratings.csv&lt;/b&gt;&lt;/font&gt;&lt;/div&gt;&lt;div&gt;&lt;font&gt;&lt;br&gt;&lt;/font&gt;&lt;/div&gt;&lt;div style=&quot;text-align: left;&quot;&gt;&lt;font&gt;-&amp;nbsp;&lt;span style=&quot;background-color: transparent;&quot;&gt;userId&lt;/span&gt;&lt;/font&gt;&lt;/div&gt;&lt;div style=&quot;text-align: left;&quot;&gt;&lt;font&gt;- movieId&lt;/font&gt;&lt;/div&gt;&lt;div style=&quot;text-align: left;&quot;&gt;&lt;font&gt;- rating&lt;/font&gt;&lt;/div&gt;&lt;div style=&quot;text-align: left;&quot;&gt;&lt;font&gt;- timestamp&lt;/font&gt;&lt;/div&gt;&lt;div style=&quot;text-align: left;&quot;&gt;&lt;font&gt;&lt;br&gt;&lt;/font&gt;&lt;/div&gt;&lt;div style=&quot;text-align: left;&quot;&gt;&lt;font&gt;&lt;b&gt;2.&lt;span style=&quot;background-color: transparent;&quot;&gt;movies.csv&lt;/span&gt;&lt;/b&gt;&lt;/font&gt;&lt;/div&gt;&lt;div style=&quot;text-align: left;&quot;&gt;&lt;font&gt;&lt;br&gt;&lt;/font&gt;&lt;/div&gt;&lt;div style=&quot;text-align: left;&quot;&gt;&lt;font&gt;- movieId&lt;/font&gt;&lt;/div&gt;&lt;div style=&quot;text-align: left;&quot;&gt;&lt;font&gt;- title&lt;/font&gt;&lt;/div&gt;&lt;div style=&quot;text-align: left;&quot;&gt;&lt;font&gt;- genres&lt;/font&gt;&lt;/div&gt;" style="text;html=1;align=center;verticalAlign=middle;whiteSpace=wrap;rounded=0;fontSize=16;" vertex="1" parent="1">
          <mxGeometry x="125" y="460" width="170" height="240" as="geometry" />
        </mxCell>
        <mxCell id="mDin6mMPrwB7ljJCuVws-7" value="&lt;u&gt;&lt;b&gt;Input Files - Dataset&lt;/b&gt;&lt;/u&gt;" style="text;html=1;align=center;verticalAlign=middle;whiteSpace=wrap;rounded=0;fontSize=16;" vertex="1" parent="1">
          <mxGeometry x="150" y="420" width="120" height="30" as="geometry" />
        </mxCell>
        <mxCell id="mDin6mMPrwB7ljJCuVws-8" value="" style="rounded=0;whiteSpace=wrap;html=1;fontSize=16;" vertex="1" parent="1">
          <mxGeometry x="400" y="240" width="770" height="490" as="geometry" />
        </mxCell>
        <mxCell id="mDin6mMPrwB7ljJCuVws-10" value="" style="image;aspect=fixed;html=1;points=[];align=center;fontSize=16;image=img/lib/azure2/storage/Storage_Accounts.svg;" vertex="1" parent="1">
          <mxGeometry x="450" y="280" width="40" height="32" as="geometry" />
        </mxCell>
        <mxCell id="mDin6mMPrwB7ljJCuVws-16" value="" style="endArrow=classic;html=1;rounded=0;entryX=-0.075;entryY=0.469;entryDx=0;entryDy=0;entryPerimeter=0;fontSize=16;" edge="1" parent="1" target="mDin6mMPrwB7ljJCuVws-10">
          <mxGeometry width="50" height="50" relative="1" as="geometry">
            <mxPoint x="210" y="410" as="sourcePoint" />
            <mxPoint x="450" y="390" as="targetPoint" />
            <Array as="points">
              <mxPoint x="210" y="295" />
              <mxPoint x="330" y="295" />
            </Array>
          </mxGeometry>
        </mxCell>
        <mxCell id="mDin6mMPrwB7ljJCuVws-17" value="Azure Blob Storage&amp;nbsp;" style="text;html=1;align=center;verticalAlign=middle;whiteSpace=wrap;rounded=0;fillColor=#dae8fc;strokeColor=#6c8ebf;fontSize=16;" vertex="1" parent="1">
          <mxGeometry x="415" y="320" width="125" height="60" as="geometry" />
        </mxCell>
        <mxCell id="mDin6mMPrwB7ljJCuVws-20" value="" style="rounded=0;whiteSpace=wrap;html=1;fontSize=16;" vertex="1" parent="1">
          <mxGeometry x="560" y="252" width="390" height="428" as="geometry" />
        </mxCell>
        <mxCell id="mDin6mMPrwB7ljJCuVws-18" value="" style="image;aspect=fixed;html=1;points=[];align=center;fontSize=16;image=img/lib/azure2/analytics/Azure_Databricks.svg;" vertex="1" parent="1">
          <mxGeometry x="647.2" y="262" width="62.8" height="68" as="geometry" />
        </mxCell>
        <mxCell id="mDin6mMPrwB7ljJCuVws-19" value="&lt;b&gt;Azure Databricks Cluster&lt;/b&gt;" style="text;html=1;align=center;verticalAlign=middle;whiteSpace=wrap;rounded=0;fillColor=#dae8fc;strokeColor=#6c8ebf;fontSize=16;" vertex="1" parent="1">
          <mxGeometry x="720" y="282" width="180" height="48" as="geometry" />
        </mxCell>
        <mxCell id="mDin6mMPrwB7ljJCuVws-22" value="" style="shape=image;verticalLabelPosition=bottom;labelBackgroundColor=default;verticalAlign=top;aspect=fixed;imageAspect=0;image=data:image/webp,UklGRkIqAABXRUJQVlA4TDUqAAAvhUE9AGegJJIkBx3OkR079u5e/tfbUCJJUqPO5gONy/z/X9ioNpKt5FuMN0D0M6wD+u/I5z/+/99dxCKLCYBAdM4sNqtJWXdjVN017J44BtK2Sf3b3q8hIiYAVbT4lbt1c762fZfT1tbz7DEMUrWeN2Mbyeqd35xVkt1bc/4ExL01f09lOW7ZJWEDLSgHEasFIsE2LUkYQmjJTnBizlfJCcLWf7CHc76aa6z8VWfMEjobbc5XJ6L/BtzGuHEcP/FjbXvdhrZtfV/Ye/S9Ue9icwl7LXrae6RQMseFoTRUATcwcSiRpRodhPsFRhzRfwNuY+wcjp/g/5MljuwkDh4wlpTYtmyiOENulklAkSMP+h/ZQGR51L9IgQlHVsac5QSujxOKkEZcSYDXuu0nbDzcU8PnvZTyAMGoA7xKKWU7OTDoFlhLqYZhyNcEzjXbRDzkh/JHPvBn/h7gTUYH6hjaPwMe3iFJzMeBHbsmSWRIkhE+nP+u5aCTqT+BRCEWjK9J/Ld2FambbUsZ4iPCZmnwPtmRZFlSZNsDPFviXBqabB1kIwEZ3dHC9rXFo84yJoBhiA2/WrzjSFJsmVqjaxEKFVvFNuXwFYb77TYxwBb4KKWUea3q7RBjuF/2dZsnNDohXPG/j4qZSDJwv+5bKaXMZHAzDd5qtkSuvK9rqRhftFOHt19rTgF0fj73ctCPHt0JwVpK2U7L8QHXy76Whk7O2E62Gxwf98uztPXD6EIkzhUTrzpe9vULb8NDEedSStnwuY5r+Urbj2JsIVIOwFr+nN4ZXLNsPg/8P/45PTzC86uUUmbg88+xndDgKknNA/In4zsMbjoKHzUOzybbvlaccEYXcuCNhKXBPt9elfeJMd0SSbJsS7CWUspPEJZD3Pcby17xYFABsCPAsFzWUsr2hhVepZSy7TfDtfI2jeuWyCgi98plO4Hhcy3bfgHg4zijIS2R7RCxXPZSaZtwwrLul6nyda3mDXtIZytRAtyfazmAFcO93ljq+Q6gIRUWgeVy2GpMYKHWuZrlhsmQHGSzXPeWyztOAq4SvOo5EQ2J1Ndny3VLEimRYannjOxBPQLX517amrGdKAqIc+XtBM6YPsly3bcvvN9AkaMEwvOYbY1JyXVdv9jmOxhZxobDLDeQYFDz2d62/TZRk4AEr4p9MgRnQBbXL64Xjpss22RZKx7YynieUQzNuc03ANRQ4LPyNtkalWBtXe9fbhKwV8x4TGXJWhrbXBsky1Ikh2udT8TKiCoy/z2wPeotKO32Ufl9Ag2qOTlS9htgoGlBPR/Q6SaBgETwNR5YGuf9csdGbuFjewN6vElCgCJF6TU+aVC2ecKy/1SYwZ0OUmJIr82shLxKS/MNUFPxZ8U2OV0igP3za4tRBL+VpvbbZLeixVI/TqTLyKAOD48PD1/jkA3LR7u2eWoPwl7xoM8Gxje3b125df8dvq6OJMN1LW3NqF4dSeFV8T51aEnBB1euVG3avPUXBeN1jcDybNd2qt+RbJKcDw8i4r5M4av1tm3b3KaNlwwRr4vkv69D1eGXn61ISWJxeGxv+A/1VBT5zadN09p2bh8NSLw24hXrP1cOV5cYgEAwpIh//Nx/1LGbEhCKq01xtu1SuqV4XQE68dm/fZ4WBYGEoEDMP7D7mgLjwXrrPtnV717jUEixEv3nf/wUX7VphQQUAiUo/o/5h6SuFmr2b43tMndolvQaAyIi4vk/fv755/8hHvyqS4MQKIGgyLlHOdmK0tEUP8/FznZxdnb9tV6XCSGEIuL5P3/+H+L5qCntCiEoQmBQEf9l7tFVlkIHo9bOLm77z43F1xYgEOyt/75y+ElTvLESJBCKCAZPepAk3QQxtlPOzvbYLrZdHZF4fVCKiFg5/G3VOu8MBAj86seDdyIY8c38w3LUSQnCpWK75JQa556evb4HKREREbGXWjvvEyDE0dHeP/+HdyLmHzfoKEAxGxXbOd3aWm9yLq4ny6/xSlJiMOJuk23vQwRjt37xf/zjH//8fuWkB7Z7CZTuNrZL+/vjla/WOzs3L/E6M0JCBOJuZ+f8N5FEXE0/fPPzzz///M/v35l7TH01Xe9cnKeLEj5v7Op3g+g3CQqkgnyVhJAgMaBXTogBktud7fpvASh2h+0Ph//4+eef//Ef/8P3/ccJ1E0T4oNiu34BkrNRqTcWBQEAyWAwFHz1lSEpIqQAefIiCiCka52Lh38TGLzWDL/9P9XjP37u8YadjtpFO7taCiH4YdMcYW4CIgEApxgCYy7wJEkhiSGSvNrZpX4BKWbrpd2Jf/x8AvUjqJeBGLp4Y7IQIvm0+pqUBEAiFYfHx8eHoVd3BGeHx8fHhwzhpCEGKEnEanFxdSSA15ucd1ZepY2ONklDZ7ucFxCabS1HgHNnxdPbn3yydf+dU5h0+NXWrVu37v8kxkm3CEUPcLXYri4IMRsV58mrFaebM3Q4dLGr86TEOCZJkCCE3dvjtmqqjVuPB8LJS2hv68p6VbW+9d2AJz0DT29vbW1tfUeOXFyqZQjbjXMui//lNFIvitnQtutHIAFhDir49JO6aUpu29T9fhAgCQCSQg9+VbVtKaVNG48HgRCAkPDVlZxSSvvgyHaploOz1c52euffX6lE6aZmw7Fd8nQFIkECIADx6SdNW2xn53bjMQJS34gHF5vS2rbbduNIQYGA+HS9bV1c/6AYjbOdBuKDynbbvfN/vPJs0Y2lnrk6CvQhAIJPf9W07tHa7eQlyb6EpxebtrhPW322HBIg8ZtR29p2/oUOh7Y3E3l4qbNdPeM3/zz5/Xscd9MYvbOrfZKkAEAAZ5/Pd2+pvo75VnxezXe2c/NCDAKIB1Uptl3/QrOhs51CB6PiktNSxPG/n1gz9NMoXSp2KZ4sCCcg3F1v2+LsYtvOebIcAAEAe8N27me7OE8XGQA1u9S5R347dofjYk+C28l29fuViMPj7/95gh44/XwUH5Ri2+0jkifU7NO22MUnUD8MEgAYl5rinpXs3umFSCD2qpJ7at/Wnda2N+Jw1Nm5Ww6GTjxuE6ibEnCj6SlPFqUQBCl4sy7Ftjc37WzbebIYFBS8Wbdzcs/cTgcEwA8aF+dsVxd0p7FznsbN5OzqYQSAiIjn/eUGqB9Je3W27VJ/JwoEgJhdLO5VlZpiuzhXRwpQMbtUnG3nKqViO7s0SyIVI8/RLseNzna+F6vFzs1yUCAVEd98/899nyd6CpRmF4tLb6xEP5APcrHtnDauXEmNi13qHREQ71bF9rhKm7euVI1tu/6TAO5W67bdVm23oJ7qP99NtuuHQRAiIyLi8DIB2HI3DbjWuRer70RKIOJqW1xcNVtPvn9ye9jYxZ4sUlJcbnrXyf0nf/zjF+tNtp133iF0t7Pt1LSlW4mbE2fnty93Lm5eBglAUJxEPxNgYLfuP/J0MUAA2l1vnZ27xwMA+qpubbs+L0DPh6XY9eQPBIAHw2Lb6RzBa53t6jdfPvnDHwbxcc8eDYtLfQ9iCBGICM5L7unN2WpfJR2JABE3Gxc7PWKQCF1Nre36SAJ+29rOzWNGAIHPGzu7epvUB8V2twQAiusT23mz2E5LlAAAAkAqgJJEVj96MHTJtuvpSoQQcaktxdVngxAA8OBiZ7u+F4rDUWu7+h1BAOBsWIpd7wAcFds7EYKkq517FOedIAAAhASAAstJP01CaLW1S/FmOiIDOhi5ZKeXIgAIsd1k21OJd+pS7G5JBCAI17rWzlORI9t5J4Ih8VLxHOlCSAAokAAJSbLkqCMpbla52C7tdEAy7iTb9a2BAgCgOBja9iRCH7d2qR8ySAgC7ja2PQE5ynZ+BoCSLvaVne8NOG/qn5JIkXq6UTEb9d+5LAUR1zvb1ZIIAQCIVbtsThZDl7tiN+dIAgCkw6FL3pwMEKN1u34hkUCM5md+puj/IZACgWT1Jga2m165+nogcbXYng6Cc4G8VuzSLoSGtj0dsH8mxIu2XRakobOHR5Sk0HBe7Q4ozBECFYlCZwdK6o1SnCcLETGynfdjfgq80Tm7Oh8Hw7FdP5RE9InLxWWjW9LhcN2uzgcAiMOxXXpxshDzzf5AfSo+b5x744jaG9qujgLzSHca29X5uNtkuz6avzCka53tdil2a9v1EgEIJ1mpXkQI/w2AuWHXO+Kd7OxqgepPEDEnXm9tV+eJeYTtrrRuLuBOa7s+T1DQYb1uu+2tn0W8+pcOH5Di89475wn1UbHzZECcgHZ7YYkfds6eLMa8MXSjs10txZ0m90QA3KvX7bxR23a3cFITwBn8EQTAOBwV297oFvhRZ3u6ghNKcafYrpbivVLsnZUTTNLNzsXtUtzsbFcLBADcaXNx/s1ayXb9p9B/A5GQ4oPGtkt7nh93tndOakB3OhdXy7FWbO/gpEDd7IrdLfdVFkAAutO4uL73fmc77wwAnO2FAiDgaZWL7eocr3V23tcrrLM3moVYLcXel074I252xRuTnvLGZJEAoJtNtut7dxvbbhbP+iRJAMDsYmtn12/pain2foTmROlOU+zJymy12N6PkwLiRtO6TAbxcZft6YAAEB91tuuvD4fFdvVCwbO9C4QgYLuxnYdvxeXSM2EexfXO2dPQqNjtvuaj5sMG43pne2cAAMBHnd0OH8Uvu2zn6UA40zU/wb0227l+SxeLnXfEEyx4tdhlqsOLvbNwEvFxZ3vKuDop9j4BAPx4Uuz6CDebYrtdPtsGMQiCVAxtuz4XI9t5h8Q85MjF+V5oVIq9wxOL1zsXTwKXSrH31a8Pe+GcYmiXXD0Tz/IQvnkJApA4sl3qt2brdvZkEP0rJB4MbdffoX+eLs59AQnXSnaegheLc94HCAi/Lj1FXO7ci2e3ieA3n+5LghBx0barcxradrVIgQIozLYbF1fnpZ7SwtwgIX7QOecdaeTi/G3fYq3YuTov3mhsO72kzmpLPLzd7gwgkIr1Yrs5P+upfimJAKSYXezs0i2Sv+yyXZ8LiAAogasuHt5DDG23fwIAYLZabFfngMNhsT38/UCMMykJx1frdrIQotA/b3SDw7an/ZAEidR2su1pEO8V2/XDIEEGGMcc2a6fKYZju34h9TQqtsv5ED7oXEpuFsizeJKI+G3VurogIYJ3W5fsaexVtu3JCkkCodml1tn1nxX8uHNpPVmUAICcfceRXeq/Q5Xt+ggAoNnQ2Z4sQLzRZOdSvTirQXE7N3Z7L0gorna265242zrbrh6HBFD8vCrFrl4q8KB1KW5fBEkwYvsHjNbt+q2YtbarJYEAZtXYzp8tCjwY2c55OmCcxYOwN2xse7LECDxYt+36Gbd7oeTyEiCJB6Ou2HkyQMTB0HbO0wWQJJ8O/6ahS6nf0l69btfL0bdq3fbOQCAvd7ZdLZ3NwTgc2tluf/Mj9PTTtuSSq6U52c1vXgLQg08au7j+GoI0su1c/e5HAHr6SfViNsx2dY532mxXyxQkzRrb+WFQ0s2mp2eKAM9iWC+2c0637t/+VSp2ztNFXu/6ytWt+19+eXvUFrvkZhkA8eumV+nWF0++uH0xVRf21m1XF3izFxZJQDponJ1/EADNhrazJyskedaegni59KupqrbYxdXfAx+WOeWqvTJum7a45HoaAoQbySXbuS1XxnVTqgt72fbkXNxsbFcLhCTs9exbkUKsdSU7V0tBnT0Tud3YLrbbtrXtcbNAvt/Z2cW227Zti53tdCEgIWajYtvOTdu23qzO32yLPVngv3a22wEBADcbe950txfr/eDZC5R0p3KPUtyjukfGeyW7Tylt29q2689WggIZv21s5+weG+mdG53t6UJ8PCn2ZDEECduN7fpvAgAd1LadJ4OQcNagEBeLi53dV26XArFWXGwXZ89RcvdSBCDFN6PW/a2nwceT4rIziH/tXPJ0AAjk9c52dUQAYFzunF2qI5xBAeTVxnbrOerpSiguFb+aamdAAgLFtcYnsNEMPursvB/8cGJ7hyFAfL/Yro9EAuB2Pz4UiDOIHlTOPoF0FMJstdi56h3ne/KSIAEgsDcsnqc08XHn4n3F+5PivD8AAOK9Ypf6JUBI2K16cboSOGtDIGK22tkudms73VsJYXaxtcutVNz2T+Nq8pgUAICKuJY25rXZDK5P7PxtxNqGnR9KEKInVwsCAUirxbarpTiLAeKDurNzybbTZz9K1Gy9LW5ffpraTdvjsavJdxTmSorDT1PZtMfjsdMEv+xK2+7rcNS2bfsDSEh8r2vbklZIAFJcb9q2bat7ZzIIml2tmrLpsau0+RIUdDi03SzvfZJSU3Kb0sbjQQRB9Cti75OU2rZtU9p4HGupatK3mo2qJlU/SCBCq03TNGkgAAKxW1VVqlKzwjNZ5Ox2Timlqtz6UQEhDpqcN7t3OLt9JTdNs3HrJSBIQj8oeHB73Dap3bj1V+jL+1/cv/1Ss9tf3P7i9hEIAPrtF/dvf7EVBAAxePuLL7744outZeFswtmXn4xb33r8Tq8Rh4290a0w+PyLra37TwYECAD9AgDoj7e3tu4/WQkBCgEAAgJAUgIoUMQJREQQ4BktQXF8fDwABBDAbmN7EgSAiCBEnIo4VmTZUa1IUS0SYzdIRaeTZCgQBAQBDO119sYkQALBQIgCNH8mmcSCgK0kliXJB9e7yXE6kiR3W5AoBCCCAsQHje1pCIBABnE6LNvtvW71WVYiy/o+IsjoNxDbne2pAAYBCsFXRyNkJbJUX6VDqbaSb2RSAkGEBJC8VrLzPRGSBBCvHJw3WchNH6dlKVGibyTiBIRfF7veFwgAAojTkciSJOtPyvp+IgQAAHm5dR7+OXASPNX/8BuEBLJ/FAgCa8WuX1AAhP+rRP6zv0iKrG8qsae3hDc3AlZt57cCxBsbzi66uD4XeJNzMGqaJp0T3+Cmg2Hbtu0S8eZG0JMnT548WdSbPEiIiIDw5l4liiFKb/IYoiSQ+H/06P8uFvYT/r9VKOmNLoERAQXf6EVx9mQl3ugzwIPbV36/yDf4EKRLKaUXgTc5fJC8mSeDMyEBAAj1RYGgwDO/MUbdOHsSZyEICokiwbkmGXHWi9Ld5NYb5UwYQyIj5k0MUJLO/uNGY9tnJSgIQsF+kwGSPOslXJ9k581u8PoDSQR1/ORHCOw/AABn/izxWmc7T3kWzggcPt2qf//XwVycff/T99//pDNfgV9PbNcPz0QLz6+m1KTm8UAQxDsppbSPOOtn8npnuzqnM3ANHl5KbWvX6aVIQDdT21bfCmefG8mupjwLV8bl1Nm2689WAgD/ZWLXL3TWS1KMUuqW4wxU6GYqLradqyMA1L9MiqtlnfUSyOefbv0Y8fqbOrzYFNvFxfV0QCIud8XVCs/+WcLhMYLC6+dGcn/am80CII2KN9MAPPPvCAEInoX/WrGdi22X+iGg2dDZkyAhECAQAEEAnBNJ6iQJAiEESIHzYoAQAIEUAqQgsD8DCko6aRKEQL5CJAUIAnjKhg4q2zk1qdi5ekRilp3zTjBIQQJDEQxBoKSQIiSJPKECVEREUKT6ihCDUigkCSFJYsTcIoZEEAQASQGSCugVCyVGRDAC5GkOEh40tqtbX3xS2XmyTMRBtvO3CjICAEIEAAoAwBCAICHMlRAiAQCME4xggCQBURQoAAqpP0IhkUK/AJEM8lUmgQQAMKjTGAW829nVZ4M4vNS5ORKIm43z8O8ARAgMArFCClAogNnxTytQxEkmBfD8j0+e/ESwbwIkMQKz42MoIARxeLwCRf8sAjjpEQFgBUDgxJIUmB1//+T7Y4iK0ywU10pxdSEittvq9xEQPix2/vvx8fEKCYA6/v7JHxYDAkgcHj/Z2rr/0woY8wYGDv/46Tht3Ppx5YQYYAT0/Kvbj/86AEnMnn+59YefBiBJUIfHx8fHx/2/RBw///7L758PIJ1sxPHTT9a7W/ePB8CpAjAbuc3tOxFxMJosSoLeK855klJ6KQmcfVWnNFlgQMLs6aepx73jOGEy9PxiSm1bpfRwEHNngozD36aUUvr6mOTzD1JKKX230g/8MKWUHiFAQDh8OkoppfT7n3hyMf44Sk3TppS+W4lTbYqDoV3alYjApWcAKb5bcm7btkmLEqDPU9O0U4CidHeYUtu2bZV2FKTmznuj1JZi5yq9CPQHGdTl1LRtW6VHwdnF1DTOVToKEgB/2bRNdQSESPBaapq2qao0XZybBBi4W6WmtUubmpfQKYzEbmu7Ww5I3wwAIGK1ZJfsNgURsZ0a2zuSFHxQN8U92vQ4IgRAEXeHyXNU6YUkEiKD11Jr287pKFar4rHterLMEKjV0rpaYJDU4dWqsW1vOm2shEiIYsSD1BR7bNtV986phrCbbbdHkkhAIGbDYtvZHRSxN2xs5x0QEbNhY9vF2a6bBfavMRs1PoFqOggKQgTv1o1zse1q52oqzsW2qxcBQKqdXS9TQvB66twjez29rSAEELG73hQ7F2cXV89OYwIPatv1zgopgKBw0DiXnPPwVhBxqdfDZ5A0+7det/21+p1IAZpdTT6BPE5H6gd9s9qM3Sc3uXOf0k4jQERju1kIUXG3bjZ7Ki4lTwYkASHi0+RcSnGPPHkHpyjwYGg7TxZDIABAB43t4jJ8LMXesBQ7D49Aca/qbNtjF7vkaYQAxsGwO6nt6k+KgBR8UBXnuaoaO/flbiUIzpLtySBC0tVmnJ3dZyMtUAAo7NXFznYpJdtO50/V0si2q2cBUgICu517VC8Zcbkptl2fIzRb7XfbFtt2eimAissndbHd7hAgoMNR45MY+wSqCyKw29jeYSD4tCrFJ1Dqv4kAEQeXuuwTqY54quJasZ2nK0ESALjd2c5trs4rDuq22G6rc4i4m2zbVUqpV9V+hMQ7dWvbbds0xXZ2txyExAepP1s7z13aYtv1L0hyu7O9LzBwqcm2c1W1xba9wxAQ/DwV285t2/bjFAicgl82LnY6ikCAJH9Z7Lqpqup8aLvJdq6aZiEiRp3tnDbuP/m0V3kaDMVq42xXTfNJm2zb1TlKINca223TVM3clpomFdv1D5Ti/eLS7gvAbm3bdWqvNKmUYk8WCQkHw6bYOVVtkzo72xNSr5SEu42zXU8HCAgQ11q7/cvz588ZHHUuOX39/HgwN3N69FPE8bVkO08Wwditbbua/vjT8fOrvRq+EAHNku06/eX502HnnO3q4U8/XW1s550BIt4t2fUzgPFx4+ycXv50fLza2Ha1EADi82Tb6dFPPz3/KhW7OC3jlSdKmA1tF7dHgSABrtkbkwFAxV5lb1RfDxCKeLexnR4PEIHZyHauFqi43rm4mvwYIA5Wi+36awnkdmc7/WVAbjd263rnHehw1BNFrhW7egliNirZOf2FUOwOi+16gQA4Ks5OD1cI6Fqy80Z97jRZ0rtdcXH12QoJSIerxRvT6HGjcfFkQRHSrLZd76wgIoLX7ez6vEKjzq4nf0FEBLabdds7AYJrxc47A0XMGmc7vVRErHV2ng4Yuli8WS0C3Eu2q2cDRQSudbbr5aB0pyou9c5iRFCzUbFz/bbwKoNA3a2ybTdHAgke1HaeBknwWmfXXyMYwe3Gzmkh+lwtdk4LjJvJdnVEAhAP6+zsKQhwlO3qgkIxG9rO00FEcLvrBcbh0HYaEPjXxs7dYgSD3GvsUi0FwMudi9OyIhgRNxo7D98KnALG7GJn2/XXEQC02+Scd4IQYlTsaiEQUKw1uVSPRAYCn6fi9XR/QL7b2Xk6CAAUOCr25hRC7GbbaUBCuljs4QtAijs9ReigsV0NGFqbFFePQADSrLHL8HyQrItL/TCCABCzynb9lkD8GW03tu3JcoDCbmfXjyQASs5OiyQYh0PbzUIwpLg77Ox0b0XSyHb1TIQAQNc721NIvNPZeUKAmg2dc7UUAHS3s4ffEtxtsvN0IB1W2W7eEQBAh9nF1VIo9tLYuVoKSBB0uLphD9+GTtMRB6PW2a4eBQHebezhhYDAw7Re8v4gQojdxq7vKcTg3qixq88WQXyTbE8GAgGA8dGk2FOAvNtlD5+BQMxq29UCBXK7c8k/gLrb2PlbQHtNcZ6KgCDN1otLvRCBDzvnPAVAgEKsubh+mzzFIMSrTbadNwYQeK2z63MhSHcbu/6bQmRc7+z6HClhdqnxZp0WFIztzq7vRQQAAPyos70jgVc7u35bgDBrbU8GASmud3b9nwRe65zXfxDibuc8/HPMh8p2tUzqUrHr70RRAMj3bA/fPl1g6GDU2sXty4C4WuzqXAjU9a609d8AClxrvTEZhEKH15ri3LxUKLjWOddvkRQAQB9NSunbaimu31IvNPbmjigo1opdvyVwrRRXfw/y/c6uLvRv0GHTU2hWleJ6QQoAAPhu7xzgKUoAfluV4lw9ohCrY7tbCBD4sNjVBYkUVovzVAjgQVXyOD0KieCa7epcoG9Cz6aiMLJdLVEA7zTZeT8IkKvObhbIWLNLdSRgbaO4WhIpADpobU8WyVmynZYpBgBQ79t5+Fac5iOQmK22tvNnAzJG9uZ0QEn8cOLNtEBAcTAqrh+BjOdVY1c7A4CK2dD2ZIVA3/BRccn7oeDI3uzeESR+3Nl5XyTEVXtzskLFanFJywyuFXuyEgAgxUE1dt4ZkA+a9Zx3CADqW7GrC9QpbgAk3axs58li6Jvh2GUHJCIul1LKAJJ0p8mulwTsrjd2NXkHIITdxvY0QPThRxO7fiTE4XDdGxOQAN8rdv1CBHU4tDcng9BsaDtRnK3aG5MIAQBwt7HztxI/7Ox6XyH0M9Zst+f0qhvRz6HZxdbZ7QJ0s8r2vgBqNizebAaCqJudc32ecThKxbn7EQGQsdvZngr9Evj+pHh4BMadJtsTERB6WgoQcaey85TUbmM7SXFQ2Z6K/Qevt875W5HvFTvvi3NTs9XijWYBfNWZnCtcb1q7WiDe6+y8rxDisLHzhBCkGxO7Xoj4NNlO34EkAex2dt4RT7BLnV2fo+JGZ7dTAVKsleJqOQjobuc83CHjTmfnDTJ2m5LzTgQIAHy32O0PEt8t2e0zqW/EQe3sCXCKABISYrcp2dWC8N91dv1CIDlLdt4JQIobjV0vc6/qxq4+WwwECPJuZ+d7AEBAEEcbxfU5oqf66yCh2ajY1WJI0I3Orv/M0J3Orn+P0J3Ouf5a/UC+27rUR2CsFbv9TkQf7Tb25uQUP6B/kmYju9QLgfcm2cMLYIR2O5fhn4MCeL2z6/Pcbuw6/RgMEiC3e5o3AUO7VOeD+mhi1y8EAAe17WaRBOLmxHn4nwNxc2LX3wV0p7OHL+YCsFbsaik0Gzm7+u6EP3c7O09AnJgFKnQ4oATgg9ILs9VJ63qBAPh54zx8SwCCV/vhMDk3R0AwIIHXJtneCZCEQHA49uZkgYqrnV2fY0A6aGxPBwGSV7tS6rcIXu3s4XmQ253L8Jzm8mxUvFktgrNRsdtH6JekO926871XmkDq7lEEEHG9s6uF0LA4VwshBP+tuNRvBUDxWt9mqyX9eQARIEBe64o9FaV+OKidPaWAUbGr8wFCu52d9ylAXC12dY7Cqu3qPMW14lydjzk7yBt2GkQc1rbb/bl/ANtdbofP4pVSxNPhTgjBuFZcJosxa0t2tUwhOGrt6hwAkNcmxcPvhPfS7wdQ7L0dIfaDJyskBEG82dreUUgj2+35AMC7nZ1/CALgKNvdMsGRXaoFMlZLdjqPvmm3ydmTldCstnPeFwkAIi939vAcTsr9xtNfpY0BScTlYk8WdVi5uFomJY7G3ugWAwLVO+8IN3dWAMXqZFkE+HlnuzoXCggIXO/svA9Qw7HzziIJ4cPOpfpBksDhujcmAwCjsT0dULE6tqeDuTN3u+x8bxA6XHfrPBkQAChyzXZ9jsTJiE9/lTabhSBjNrTzZwPNmnW7WiCgw2GxJ6QA8Xpne7IYhz8qgttV9dmgbzm73kcAUJDvF7v+GtRBbed9CQTfbV2qFyKgg6Hz5hTQwdD2DoHDUXHZiQABEA8aO/8gxGxo29VRBAgFYtV2tfSqQM0+SXb1NYLYbl3qR4jDxnZ9XsHYreyNiQIA4+bEdvUMQAR3R11OjweU9jrbTi8REdQg3pvY9RGkO83Y+QdRINaKnZYlAneasdsppDvt2Hlf4G5l550QARC81rkd/gKh2WpPG4sIBbRyMBrbk0XiFWiWip0ny9Tzi1129Z36Vn8dQNxs7DwVAEJ3Gtt5sgAATy+lzZLTQjB2G9uupz8FoN8ua7XYw/NAfNS0rv8WkhCrLpvNIijhZlNKfQ/SjaaUvB/AncbO+9HP4Fqxq/9MgJeL7Vw9WiEw+3LpTm69MY1XhpjVtl3d+sOXv0q2u2XEYZvt0jz+64puTOz6oUAIcSeNbVc7T75/+uRiskvuFkQe1M6202/uP/nyy+rcbGjnaiGAjyZ2fSQgdDBydjMgBH7U2cMXgD6auNQvhLjRtXn4TAAkBFddNtOSIL5Xsp1z2vryyZNP0/LHjZ2ngVchXSy9SinZzp+tRBwm265SN+B2lz08CgAAZqNit+tVd2ucmrZk1w/BoFaLi+0qpZSahVk1dk4LQLzfebNaAIjYTXaeDAAQH06K63MhXe+K6yUCNzu7XgIBgBGrtpt3APJ6Yxe7SimlNMHHnZ2nepUY/LCz7ZyL7VJ9J2A2LLbtifhB51JfCBCA8G6Xbbdt1ZRc7NwMGAB/2Xtku3U75azJztMBpdVip4EA6U5nDx9RoHhpYlfnQ7hU7HqRxAcTl/p8v4WDobMnA0ExS3Z2Hju3xRP8elJcP9Irg7jdluw58mQ5GFrr+gJGxa7PiQAA3W1sF5di296svg2Bob1kZ/fYnMZek533A5itO7saAGTcaez6KECJ661dLTE0au1qAeBqa1cL7P+129ieBARqVIpLLl4vzju61BUPj/BKCA2L56mfSRDe62n4UKhtNwv9IB3UxT3GxXlcTQYhUtKozLXbqa532fW3Ic1aO28QgLTd2dX5AAAO7byzQGFoezIgOczenMxJutvZ7WckIFxv7Gy72PWfYliyq4VXToC82syr2vhRFPDNqNiuX5D1ujcnA6pfca3ZbG27tZ3TSwEAENvJ2c7Orh/icmvX34qaNW0ZPgyA4lpn10sBQbNq7PV9krPhur1DiiPbOwMQAKEbncvwcUASZ8Niu1fDt5SyXZ1/ZQvk7rC1ne22+Y4QQF5r7Hb4Nr6p1u1pCAIA8XDY2SXbZZyb7xAgAMThqHPJzvbwCGulbDRHUOw1dv1CgoKrtptlCuJelXP1gyJ2azs/DPCgGjvvg/0Q2112tURBYGwnj7NLaw/f/iaN7W6BeqVJ+Lxqy3jcts39lZBAaDZKHg8vxM12PL6yEwIAQqEnqdm8srk5Xq/S44FIQJDiwbDZ3PR409US165sbk5+BPhxuTJefzsgBVevXNmcDgSQ25MrV/IvAnGju3Jl/C3Iu+34yvhb9CHXNq6Mh+cDABDfXE3N5ubm5rhKF653tqc4RQOY3a5TSmnj8WKwV+KDX6WULvDjlFKaigEAQhC/HaYe08eUAgIABT8fph6ThcNhSmkSCLyXUkovBAgHw5TSjgiC76eU0gtR/5JSSj+I+jillL4VAQgRo5RSWiIgMXBwe5hSSqm5v/B+ccn7womPuRCYfXn79v0v/jBAAAQQwN7trfuLvLu1tbX1F5BCvwJfbX1y5crW1kuADBIAwcBXW1eubN7a+itnW1tbW49B8ubW1tbWsgDEwe2tra3HIgQ+2Nraur8gxJ2tra2tlxDvbm1tbb3EXIzbW1tb9xcFgQSpJ1tbW1tbfxhoVOz6oU5jkgBAhESSBEUFIZEAQMx9QJLQ0y+f/AQEiQAAgBIx++MX9/8KYQ5BAAARIOYInEBIAAAw0EcAAAl9BABgiACOCcRhdnZ9JBKnhDgFEk5HrByvDAjhZMQ4Pj5eIXE20SGh+KaxXS2HcKoSIL5iEQRyrgT2JcxzchMQBAAnTUBn4ScQgABAVHzYlezJgMIpoU6xn3oKAES8CoIQRJ3RVYDioG6z875A4vUjnAaBJKAzuFGAIAav9fILkf9Vf6ceEslXDQqCQOjMXYW5Gw6Gre30TpzeBOK/HgIgvBoCRJzFazAiAnv/1tge7pAS3qBI1N6P/ffT1dTmUqpzZ+Fy6g8ECMDZC7x+768/HR9//8dRKsWupwESb1bIj1Oa3KpTSsX2OL2IN20L4C+70qaqzRu2Xe2vKPCGRdRow87uk9OiILxxw6w6qZ2egW/cDaTSuL8Vj6t7gzfvFZAOm+zWtj1O02XpzdsQt5vx2B5fGdfpsx9BUm/cBrdTatq2SqnZWgAh4c0L97bGVUpNufV4oGCQeCNz8MXW/T/8CEAC3sRNQBQCipj7vYkjhDmINzgCqR5vcJEEBOENDqX+xBsfAiTe5AhvfuYm/n8PAAA=;imageBorder=default;fontSize=16;" vertex="1" parent="1">
          <mxGeometry x="631.0400000000001" y="380" width="95.12" height="60" as="geometry" />
        </mxCell>
        <mxCell id="mDin6mMPrwB7ljJCuVws-23" value="" style="image;aspect=fixed;html=1;points=[];align=center;fontSize=16;image=img/lib/azure2/databases/SQL_Database.svg;" vertex="1" parent="1">
          <mxGeometry x="1060" y="476" width="48" height="64" as="geometry" />
        </mxCell>
        <mxCell id="mDin6mMPrwB7ljJCuVws-24" value="Spark Streaming Reviews" style="text;html=1;align=center;verticalAlign=middle;whiteSpace=wrap;rounded=0;strokeColor=default;fontSize=16;" vertex="1" parent="1">
          <mxGeometry x="735" y="387.5" width="205" height="45" as="geometry" />
        </mxCell>
        <mxCell id="mDin6mMPrwB7ljJCuVws-25" value="" style="shape=image;verticalLabelPosition=bottom;labelBackgroundColor=default;verticalAlign=top;aspect=fixed;imageAspect=0;image=data:image/png,iVBORw0KGgoAAAANSUhEUgAAAQsAAAC9CAMAAACTb6i8AAABgFBMVEUBOlUAzfgAOlX///8AOFQAM1AAO1QAMU8ANlIAOVMANlAAKEcAO1P///0AKEkAzfcALUoAH0IAJkoAK0QAMk4AMFHQ3N9qgpAAL0sAKUe+x8x0h5IAOU4AKEr2+/qQqLLK0dZadoMAI0Hc5+hAXXMH1v8AKkMANkwAz/8AKE4AHUJXcIOmsLoAOkwANlgAGjsAMEGFl6Xh6+9viI6quL0yWmjt8/EHx/AA0fQERGPP2eEGTGgAXX6Ak57I2NsxUmYAHzgAEzuftLgLvN8wU2keRV0Qe6QEpsgQmL2irr0GxvpWbHUCVXYAQVEHe5YMJU+DpblvhZwKa4cFweJgd3yx2uF1qrMAEUJFYGhye4MKV3K2zMpYZnERtOAKgp4Tsc8OlrULjrkAhJcKbpNEn7Q81uwARm4JZH17lpsMOmOzx9Kd4vDY9Phz2uxs1/dLyuLa9/AhT12F3fZQh59VstAAACc4vc8AVoORzt1vmqdZqMCGutWYn6JQgJmq0t0HWWtO2mOlAAAgAElEQVR4nO19iX/aWJauuLpauYCMFpAQO0LYWBgTmc0G4oXg9lZddno6nZRjZzypcju1vMzMezPznt/Mvz73SizCSarjpHtSOH1+3RWzS5/O8p3lXlHU3+Xv8jBFQBCywpc+it+GsLJpJ8GXPoovIIACWPB/Zs/o2Qyd1b8+MADFIlEulGUbTZ6CAzoSyezBL3lYX0ZYRX1y3mqNtsLOWBP4DTpD0yX+yx7XFxAgbrasUCVWsfZ16IMBZIOOGF+djfCswLbaISIxa79Omd6zZqH3uwL82rAwHX3fqnhYtA+sI8b3GaZ9uGpTYyw8twpF6P/55Q71byUCCylBYAFEptAK+XoRasdGsuCdLDKfueUxvwCQtSXmaKuTxnDAhweGACWdZYlWmGLHCk1lVx4DADeMb9jxm4/rR6OYZcV2T75RjpkHhwUzuDGGnJ6O64Onv38vFoPcN765AEo/sWLtWLsdsi5qTu3BYTHMRCKN/K2hacbqt2MLIaFkJI9tAA5zcQ8WVLNPiT+pVCqxWOU8jn71exdQmCqNxU3s6el0ujyyYr67qFin4kQvhrmwBwvindZBbKI37RPxix7430DgcYaONMqi49gUgp2piVzUoTl+C8pFCSxAEE+s9sH49VjlrPzQbASKz7raRs3PQoC4ha97LBazztGUUkAxF/YfyKPKzJ/EQpsPjJgDylTyWWl64vLmPmaerSf1GbsCya5HQgGQd+ewOOIfWlRF9tPVScigWEesi+wfHsvU7DSFqJYUEIsENnoRwKLd/ocCz6KHhQZ/6EZnIQHbSrQvg1nWjuAftW0TwZpY1+dspLXefatQ7IMCg39mROfCo24MA55AEF9oWv6bwsZ6V/uHGf/AQXflWSOxjOm5EEBuwQUOjPAcFpIbTNHVF39akbtu1+i9ja6MrAkDibWfM4z8wtVFuMyhh+I4MBY6G3wimU0w0weC3F1j5ey1XuAggLVWZew4QyeyCWC8Vxx0bntc7X/8qP+aAqZ5JhwaZTb4AtPrKQBA4MUOkDb24mv9PcFELAXszoVnJm3rSqawNgj2oFtM9YrmAodXhFjbsZFvGmwuGqhP8IL03epjWXZMhJFAPNI0t3ir+nUuwCd/2D8/H72sjdN4EHWrst7L8ub7fmYBBHOqJHV1+kNn2bv4woRLkVdg+vuXF63di8uttA2Ayb0tPitvfPdiZVLmokxb1mXbnsSPsDGg1GqWW1AsWIrr7MdCltUedRTsBBTMpcYvQHFzhHMRYgbW2ZbEcKXigBdqUaNkTtASGESsxbcqAS7ddu2BNgDmYnpP3jw6q/g51tmmA4DUTXrPsywlX8VmDMK6LBwWhwy2FL7UX5qcazB+Arh0fZO/MZ5xCxpVgYBwNBif8znm0XqX9/UCiFdWAItKe6Q5IjlJEDbyzN2vIf9bcW8KvF422Xd+ZUHEfoWNYBwbrZc2le57PhRAdjMWgALDZV3VPRcJ7KFWgHOxAiCERN3IrgBoYn7+RU7k8wWKu9bsdHdlzLmHXk5uy6PQHWkxx95nBN1N8PMnjGm53U/F0YJahy+w0w5c/RgSZWPgnab53LqLRfuJ7ekFK9Y0fY6cAlPcKx6qaPLk3d7jYgjcDJxsJWSisrHh8UZsO7E7WFQuwuPTi672uNmZ4kgSPiwOlAlfE1gWisg0hUUDA8Wm6WasciaZkvuMYAH0i8pdLELtKbu2u2UIeB67WawBEJWvNcj7eQjWB8SpzzFfSS9aTwno5wEsRjqS3Dw5Y0E9eweLmNUZe0xBvV2Phze3tjYVGV/+QtZYFh3kN41YVD49szy+Ii4WGQfi1swvWM8hSK/mVRIhldY7ahFqjwt5gEL17j/utttta/fyz/WysfMNz45pOHSky7F1tWqLYyVeURPJryZgWC+TOPu6TXhYSOfvYhHzbQQA1t5qhXDIrcSwnOR6UXZW+rKvrANf1axzezGwYBHymABE6qXlVXjbL8P4NLn1lEoRvRi9ayMtiXwSnx932o7FDmIeAalY/7QGhSm/AvK09VixThdiOgEgEyXTSS8Tr3cuz3cvnuSNb7C3U9Z7HHmDcjqt1ExNaF/2rrNjbsYOAkC1n5uz+ClsTuNPrHKZ/FLndy9BpprtZlUvG3UUPSnJZTehYCxStx4WvNh6x0Y2TZ9fJEehSvD53aTHJ7y2u7QVwGK0EFgAVtmhaXqdM3ESxhJGjSEpImDW8gQgjIX9xIoFzrjSroz8jhmAnTkksMJsYTohqulomCmlfj+zqYMFwQIWuhiL3LbnHLx6LVATRsHkq67uvQHdIeGVs9qxZwqAOZmnpLHQ5Zp8fNhz+/3+TTYfsJ6Xypc9y48TQCWzBAstO1xSvKELjIh+84hnvvOxYAGrjizsP4kO4H+ss44J/bRNv7yDReUs1825vcMhU9aj9X3L86kxrFW1xUjTIJTXjV7hONXv94SwyLKYJUGqqPIbhu6/A0DplXdOsXalEhpR4oRHyqO7qcpZXUpLHA8hADWndua1WbG7OVEWJKaaJqNzkFeXh7eakZclnsTKxE1hMJ1Ncxz7+8uzGOGQF0fSsTP5qL1/16leBMbZTKf2Gkcgq916Ii9II41FLMAMA9MMyOklt79ainPIjr/4U8cIs74tCAKyJaaztfV971Y6htMyKPfkjl5U9m1hYg2opjxa3dq/GL3sKLUFwcIvRfn/AF6SE4a2Pvym5mi8sc2j6TtwlOT52sCIzkoTwOncwaL9wxIyJ+VgNGzIolxPctjsFgUKkmDiTNMvMyBWlIe9fi5V6DX72sYdumhKXZmftdopez7CtM/7xmFZ5YFAUrNC7pAxWQo5wqJkZphN8Prm6ckPUCYFfAEL5MJ7q/3isDDQkndOQ189FANYUJ3YjKBXYtbR42duN/v2mz87rMOk3DC2QGGB2swAxZ9fhLBbjL1UZ9kkWH5rLJtRY3AHCyaVnVsdIG5NscCu9STJwrLT6+aepnVoFheCXwVEYJOnMUIBKgfWOZxqM0BAs3VRi8P5UTR4nJsffHaOXnsJXaVitbaS2CKomiSXdrpZ56YqsgvVXBZM/vv2pMxt7UvTPherVjVXy90usXM6DqR+sNAPYNS9PjkPkdnOVx3bdz4AUrqSKGaeKmFhgYb6AOWkx+zQA+Mo0OdS33br8R1Dnys9COpOgpkWdAFgqv1ttY42n3fE+rE5mQM2HUHVhr/T3EGB8fChFmAWA1BmrRULTd3fK3U64S3U3hq6qae0Dhe4uIKYd9M8wzAOC1mWFfkiJR7DGoMDBg8n/RDgsCsvqnxSzt90e0qcMsFyGqLffONIYDcDFMEaybOeIBnAoAS5VDyUZj5VEMp9uHV6etrhZBGiZeOpgvwrH6j8AzOZMMoCgHZ5eNt3SyvPDHdo/+Zbq4Iw1/0YBRwjT7CgkHis9ZaosabD5PPLFvaTmEq0Rlty+ZGRnr/enr+gkF20CTsVBJHTqy/6GZruSr/5ljtEf24FyjH7gYDJl26ihH/DtOvGEaltUBw7TkDaXsJ6vqVxczEXmRSpd9pxI8+MiTpC4h+fRnAivACdNFa9sKYUobJlz46YrxKuhMGglq77NY6CZvK04lf72gftdgWrR/ufloIFbsCKulyv28zTm7TH6kmLRA0ntAwdKZb/58/tnsKy5nNyjUkdO1R5/Z0+pRgIYyH5f6F0tVhSUf2lX8vFqXvrzY8//YQVyrqU0EQzWCiqV5cXo1dHdQ3hXAxrCMNLcF1bZatNYyj+9tMzAMQT64AUJg6s3aP+eqE2XjfkKAmvCOr5APtt99Hj0/Hqokrl5yYdoTPt9kHIeiVPm2LJH3bb5B3WL4kyfhKZjHSc1dZrYbCUK/O/fRPBZ1qTr86wN7RioxpT3+kjhbg/wVZXUr0474cIAVu98fu2b0vtysFPGIlIJEO0xLqqj/NS7hQDSubGQ5WzjolT3vJgtfsoiuMH1LvyAiCBxYGPX1y9vDz5PmmbtXRVOwxTCMqbl+dnZ/unHKp56g75+jmp4bWJOb3OZJpnP9L/i3C0yhlWfoE4zA6xHt+EKrthplC96T8tqyZEEOha4Uuf5ceJKUh9XeQ43rMGZtjP6jV+FMIGUbHa50d1YueANb0OY+wg9FM7VnlDZ978GMkckBO3nkj4HQKp980y1vbp0+6L0mPeX3wGlX5hMfQCwmGubJqmX8JyxEK2P9ythHCkIGca2vLCLEyOsEXE3rx5E8H//ymCJfPGDypnqgMByyOyMm+SslZeu4M0P20nwv6CLCoRalVXdYBfm8P/8OXqLxPKEYsdtDcdzK2FGraPUPsPEew0Iz+2f2pmMj+2fO7ePsJYUObRXImrtSLMeCYG+/6resGHHnz0bMsHv+HDz7PR3jozI4VAOL6yAh2vyijtkDqFVWljuyArrzKRH9/8/Dr2uu1jYb20cVh1Al16EqSVQIrKl1zpvutWvcIjy04egNkaHgjn+gusILCCiK2YvBlOk2pvaQslAK/XDQIdb0CIxESEO4fFpt0qH0jMYfmiEpusmSKesIOvu3iC48cvWCeIYmTon7yXxliMZLJ288gKBUbcWrpgTo6dUr+9FcGHL837sYDJQmEyOgvgUlz3S84AUdHwUqD0CGEhDYcwrtumwBfGS2YFltN1Ur5dSpNH5ccq5cOK5LJIIUda8qVQmFsdB8xwbhgYnAHQvNM/PbEhSOLMPvQGK8UfXr/BgLwJdJsrF3WyqpcKQNGuXEjjbzR5u/74+nZZuGddB3BZTev5A6IALN1omr9KAaDyi6I2LbcBXq8aDey8mrmEzSWKN5IPmJQtYl3kD4vakIJiX3N1z7JY/UbL82wZf7cvfSWYRABB7Ov+L/r/FTZDczMGlZd1CJR9K/QzTrHonw5+IsrxOvAGDwtW3g/EEWvLP3AKJGsvRxdn/3Ss8PfL2UHUwMR9BbFEi5kB/sm814YE4oB0fyX/+iN1T8MPm8Vmht6R1XW6EfWxiLq0lgZMns4MKSBlInRCJQV6tFSkEyLSDXosGSnwmyxU915EWRaZpg15nouGpefz8xaVS0UAystQrN3GBpJ5QxB5jQPuJKOrXJSJaQvft6wY4Z3YqqzRsjcOSTnJK7JDAtaUS+meDiOeo5v0nmmSr9ZXIw065ZVPgZSltUgx7Lt6pZSJNNff2kllmCghjEUx6mNEsIh7WLBQ4MiaStN0JliwYYM23m54YgacDxKfuUZBtNVoVBqWUjtGTnvRnsPCOklTQDnBPgBrBE3cRYR+47GuCVa2N58lbsUqvplYu3/21g9g9no1SfwCpZGP04sljd6hd5ImcXyFZtOl173gDvDZVDP0nkjUjEeNiIZkiHkxzwvse7GgcHqNLYh2ySLiCRY3EXephoUPFiEFfoBB2xk+7blGv+9mEyVKX7mYcxdWB7KU+Byf1M9vMiSQYN34uf3TwcS9WqcOMQgApecXlkV6hvs1E/lYbE7gwWZzotxHM8BSg67SjbhDLleeNnborOcK+D26ua3RpBovoMdGpAl4ypsFwtf3w1jQhxGaNDPGWBSwXoS9ODL3k/UsDgsRd6dXGjJhXWJ47DuD49+xykUa/xaZ5sNW8odMJpKhf/zlxyaOqwfEgWJS9mcHesEPiNLRy/3Lk01JZD2PBOT9ysyh4tByj1QVFJp0MkOX8AmAxzd0AusIMW2gZ2ljLUs3MJFF7DBD93Rq6v1+BQtkRIpYvQNYRN/5SUF8hK90d5tjIIS+84THgW4YtoXveQfHADLLFWr98vp15vXr128iODVrtjH7irVjPw90bjLPKcp23eaoCS2QgitXrefUPab5QDhDY7N204DixQwdXaVJNQVQWF0S8jBC7/EUktbpDOTnsVjhGIbhlJXVeSz2BplINhzUiyX8PoYP9gUFIZptaHvQAebkoplYKX+peIvHcCLWvsJxG0cXs0PoRAyz61jrn+nMj9iF/kjeUbH+xcjlo6pAxp5NwinQsa95mP1wwUEv6xTdp5eo0LSeoJtpTE9SdG4bqwOGBQkbdIYDj7GRSBTE4WAu6SNxJJ8g8ihvzGMxWNmhMwPenGARMZ4dEhkEwQBA5wp8cGgbgejt6mWb+MaKtXskI+8lU5lMPFYqrzOYYGToNwQua6ST5vy1kIQIxyJzaoOkF11rB/XilLrHQAoc0hm5nKHzDCj06UQ6S/fjOKTIv6MNHarX2BgALOTofngei6lEZliQOLLBiQ0ap11TvRiLywV/FCDTCR4jEKTEC13+t8vz8939K8459j3escpd+Lwj1sZYYL8R+WdS5jrr4IQ+TWW11bdl27TLZVIBJZyAT9brw7OgXmwK98CCL9GNMrl+UQqjkpR6tIapg/C4QeeTSQk7ig2eKnRpIx74ToxF0/DlpjiLqUQvSjyXp+kUtzLBouG/r6fMH9OcN0UCd9jlIHSSSUWu2wKk/KiDgNM58wJpJdR608Qe9M3PlVgl9FyEmJsInJToG9Wl0k0uKwuISS/D6q3RffGv1pSFtM/1+7AtHgeRAoONROfWsaPjUnQjjFWtRGdSiVQq0aB3VAorjLYUxKJHF/8Y1sPRaHh79S4WaAkHHYQjtc8v3O1oVNfL9V9Z4yKYtUHR4YFf26eC/S7W7uyOycLBTz+++bEVw+FzK0n5nRFHTJfcnDawd9b1jZSL43OqxK/Yrdh0ec7WvcZduQT2BQBHkiqOoIc1fFYNzI6jO5HIWLsbcSq5QzfVgA8ivnPZNJEgoOS7WIhUk1793x4WUS+OCKYJqfetffJPHgimg8/nvRcQOXbt//g+AzuTCnEFu99Px5UwreNXercqCjf7N7ffdWSdEQUkHsXGmmG9ut8kH4eNooDwQbtqpBFnzSo2FAjiDdpd762vr2cj+PTEBB3Jc85cHFkmf0AUvhNHSDKj9yL0sD+JI2kyvgnf680FRlKkpG0m+4fc+32cgPhhbus8RnYdi1kxy9o94YQAfYIUn3dXpL0XK2R4DQj4CZZSNnetA6titU7k+3FwTLVzYVPJ08UEvaojs0TTLGAwIp1lTlHUtSYGiS03aG1lnHiDMRbe2ZlBLAQfC0DpWsR15/jF+w4JQPWH87Ozi63HN6nl95dKAAvlF1U9efRydNZut3ZfbXHJAHcCXmZd3OkVE5ibzcaYTPW//vly/7RmH99vEYm+igOGiXAk6dMDljVxRjbkdTeiPWZNbAPSDt1II7lH0zsFBvtkQYBQmGHh6UV6zkbIxSxFMlO9iJKpG+rdgwKCcmlVSDH8X2/1u2AR1ok/xZpqyo1Sjm3Lei8VlUVxsr5ZEAibRdjrJoz8tyXtbaDYgqPUM2MtaTvU/ZYwA3wyOzhelnH00woCCxFND2rlJs5QiTGbtWc0XWWo9A1N9zfC8Wh6ZWMIZ7yTKmMs9DtYQLawg2Otzy/cbQmLXDfv2AAwuauxV4xt2XewAIJjYk5qmiJb5Mf14cStNHGu3kwkeR1CZlhMKhxXKspwijeAdjbBCfdec0ZS9qxOoWSejqwnj00gYwexnCfK4f0mSVfctAAx18YMOGfkGpFs8texAKyDlMYYCzrT9CRT5e4cGFJ3J4MHu9H560caxbJsS5wSNxJjYsIfuhKYvc5LfGcTyrbef0bSPjU/W8GLsSh3ZfYTJlKiucg1BxAvFxsshTlxuEnn4zsZv9SCz0vNRooqQjBcMjJeIaLY44i/HS/mkHforkRhLJr4t/kGxgJff5NlnmYypH5xkxlLJHFngS1Amz7nJorRmdsrDFuHfLW/e7Y72vrTi2/GVxsOjAn1ZXmnfLTfisVao3+7zabJADWV7rnfTO1QHOT0z9kLF0p+RQoib4JDmE5MQjgUSHbAFISNw2rprZ7ExgyR42WJpB7DkqF1QvxYZ4jGM9imLeBIisOuV+0kOu3c1Vdnc5pNWsP5MGN/v+tFxUro9eYkFsPhrN/hxF/GSFqLk7SflkxiC4Ip79x+M3ldyibmaO7HCnB4vwZie2ukWYgPm2XF2WJP28GUnyXdXgEykMc+CwHAjqktNFmP/tqOSRY/sZNlw6w31IuxEIlgUOBdLgxYflribCWF4Fa2/FF7XMDCdHNzMtrJT7EQxJde3YoUzNsjb+MlaKJ4PyH53wJ07RNXCIBJtjvJQ4Hnw2eNBiB4fQzgaZ3gvUQCw/i4BH/ObOLTpoyJoDVZ+wT84vmdny1fhrxWaCw0egzR9AcRWzubDHDiFHVXRbb3frk/Xp8K+OchvzVAPm2d2CTKYs+Z1Db85Xb84BNaI19SQM2BZ5bnMs5fuJBjx9wFsMlXs2U07Yr1RPV4JgiT8rF3itzcSoGzZcEvveKQ8tbjYVI2tRArR6YCTIg6I8uyQvus/kjrRWtQT3NE7ZSzaYmXWMIuZ5KSt1DoJ2RPQSHfCq4sso7Gk+WI39Bw0gaEqGb/9ucu5oTsZSFtnp5uRk2o8qv9Er9jpKIsQpvzq+7alKKIIofzQ/pmRZaS5Xpnbn03NpLJ9yUTuQL2bnv9+OIsTZ2IIIi27TgO5lbJwU0xseeur+mF+SZpyPoPnBdlsy4phpPsP9f/z8odLMartChT790UTC77iPvNz++9IyTQIEhW56MaV92JMmrRvTH+fQ6KUOw/Uo9SjxKJDMaitDcYYv43t/gOYxGO6iJfw4GbDbvXK9uawv7m5/c+JJ6581V3u2Z3NwbD5/NYtJHCMFAfFpuZXlTECS9Uzq0AGu2bft9we4cDMZrmlMfGras9/ltvCBKInPf83Md8CMCVYu87IyXxKLk7h8U5zjSA+lbbYBHnhXUgPgk6jNFKXBzke+6Lfv9mp1clJfZs+pPXTHxUGYxsxELNBj3eW4+YNl/vfA79xVlkBKVr99qtSizrMCehaXM11rKuRMrkxf53nDBZZyWIZ+OecqwdancEHGYYTo+G4aDa22nSGbq49IlrBQCc5dM8D32ZnDI/G0EwTds2WZ8E8PzktKHXM/ZL/nD27LQHgL+d4U3zL1wnTFzzubqikqKow6uBHpq1r7NIrPfzaiAntzu/eLP1sVCl9Xy6zIbstyXGH2Efu6p+or8Y7u1NTpgf7I1lbAzDjcEkNWIHpWq1NNQZYrHYhSkeKHBYIrkEfgwFuLeHk1uSy4yfBSzk07CUz1eH4V/fa1Rg9rTjmj+yhByntjsZSbNG+LSAbjwqTxkDEKDuXr8iCxStyu5OoTZb2Y/TB7WqdV1Y+7Q4wiToYgF46i8sFScl/GNyhaFs0LSXXwIqXvTHY7TqMmWm+3TTNwj1EW3oAn5fNon0Bl1MktVNrJylyZJbFqWrN03v+4p7v9KnwKmJUByo05IvMJVXLYtUeVqvOIRqBfd2VvcCSIhnd8rhztXl5ZPNNeORjtiZZohUkVtKf+pmOYxX+/UyMWGlGOl7Ffyc95ixca5tREl5liVljOvrnS5NpyQznsO8x8uUuEekYUqwkFAYw7VKVtqy8jqpDwGo70ToprGadbWm8+EcGpNJvZ8PJpa14zo62d/fv3LqxwCGs4F0HBsCRxZ7C6aYVGymFi6+NeE4TwYARvt55eP83/uES2Es/MwJY0FXt6PRuO5tBAdqCXonk7HJpUakAx3npMIq3RTNdC6CHzImAJynF2VPLwrFTCNSEgUPi1WJQmEjkunpaV0PLw2pD2LBJqMFtxcNeBQAa6xgy7LM1CjelK6N6LSIDk2BwUy7hhM4UuBDiC91yywvCR1WkcyanF1dNj99jRXGojjGgvUaPN7ReC8tGXQ1Rz/iyOApwYIM55Yz9KGI9aJHN0iGzE1tRMJYRK4jWpjss+lhIfcimWf+nQDAr9RgxZ2+sROe1+qZQSA91S8HNj92TKo45Me7XJIPpa/dtR8uWrHY+WXNLmlR9BkrrO5ioUyOBUA+k4le07llc4wFg397pUHnCRZ7Gp0NT/RiggU9bNA9HfhY8EIz0vNa/mCu/XNHdEKuvc1Q3hEyFq0+1STWX82qKArkqbIWrBZibSvcjCoW2Uu/3d7SjkX2M5Zj+lh4YEKChU0KLybZG1RM0UZhGMmgqV5goxcz9JDRc3TpEDNiDnn+Ak6x2EtEMm+h42HBJbDqkLEUTz74+9FiJBNxw++egIBMAanPcOopUBAlO6f/uP9yU18yeulAEgoBJDsbjCs/7X8pv6fg/klYkDiS2hsMBm/fYneESKtZXNLoFDPGYplJF1z6pkyVc3T1sRHR6l4cCWBRWutHXhSQhwW+4Eaa6BtmGAxvO+/1F5AKr+Iw81R9R29w6FRl+W0XGwTFHquXsZBVsayL/1hdCu73zLLK1ayv3j7/vL307+iFL30dAJOKNBlW6dGkwkywyKZ6txqd4wHCepEXyXzK8l0sxEGGTnAeFtEc5jxklGwjjxlG9UP7J0Ixa7ikK8H6/2PhJA7Ur5vF4oCsGuCpc2/zB8ytrB8UNnDpWSjuhmY5fvtE/JxMJOAvSBzxYyqZTMIm4v4xrJrYSCCJIx6/iOw8xtcJ60WeT/bozFBK3MEimqWbvN7DWCxhLKI4lcCYEIIR/+BBStFtt6d7BWdsFiyODeRZAN+Szw1JcWJ5WshqV9odO1A0R+LstgOEh45k5zOM5A4W1e3l5eV4El+MQo52s9nsepNOcV5MTVUPew16NexhUeWdgkYba3exYKVGZHWNYEFatLqACXO+19uhtQ9jgXlqWDtUMIlBack0w2RTA+xw+Q2CxYYJKf50tpljxToPrFCkELc1V+3YTTsf/JmPxcL3bV4cIZtSsMRdZfxRE5rO6dAk/kLl06UIPeAFnWAhMM8idCl/Fwu1SmcGKYyFlI0UPebMiHr1V7GgWPFYw/RdPtrfbbV2X3Zs7BIAtDWa7i7jI0teVKZm0I7FNgMEGyGMRWymF+dR57Nj6tR3JkR/gyaKu6a1jWelUskbY3XG/KLgnTXBAr8vukN3D+9gAUDcoG/yGAvF6z56h63kfx0LAJhnmpzcb3s3V2m3r5AOab0AAAnySURBVOrYEHEu2O+RDa4haAULWdZV4NKzqBPEIjZSnM9YnjvFAoyxGB/dUp/upXnRtvGTPcXTC5yZqNfYr7IeFuQcG5HeHSyw/x9mMteEjBe6ES1KaJHwl7Ag2yalXuxbB6TjEascWE9Esu9W2hgSkgY7VnCPV+tVffoxnM3Xz2cJfsx6Yt5rVu1dLLQ10v5VeZPYSFhSOY7D2Tf2W5BsLkImuHQ0xoJ5Rmd4aoyFwOfpBsZCmMPC1Nfxszs6mX6i+8dxhRe5/Pxcz7tYsLD+fycz//i/7aPjmkCFNW/TAsjO13pfTVpwLDKd5cG/zxxGpfV5WydhLJo9MnWynrIxFqv4D/ywikOB5k+vixvYSIQxFrDcxK7CxwKwpI+OeScKYkGZNilZYywoPZ+hM27i8DBh0MX0rx4lK9Rm99whdyCSIaKUvuS5BmE3uNGatQUnpTIzqd5q3826Je2tz/GcHhaTYaTCLGfPbhfpdW9PJmAWGvQ652OBc3cDn2a5i2MqRapRnUyAgzc8LBDC6Hk5OxUe9Cej8fhdv3IQgOyv2J46SLJ+BLuJYT/tqUAysMlrrNJO2FGegpzEw/JTbT0uqvshj3hasav657BOcsuw1KOUJwnbTvh/pXol51Fq6C+AqtmHqSrELw2wwQjCRiph2vnUwHsNiNXUoQP5aqoksGI+NWT9E8vjT5CWL18YprKrq718J/2rLg1AeX6nKOsHBpkDI+xRTKETGI8OXbp9t6TL3+48G+RcVoIArf2/i5aFc7OO8pnrUUFNVbwGsMqZpv8XFttUOOQVysgopqrYVE0hj6FjcoJp8hzvVZOAoHCk8MeoPEs5IuPnHQJiVMY7d0ykOTUaVpR32ql3DoK6s+WcdYp/ruomfSzqV1MzqFyoy/WEkTPoSKT/nVwj/Pi4v011OmL4sxtEwEGsF0ZJl8Icb+cEvB65f/wmZDF/Zk3Hr8BBMrtDZvj8jyMc9VjgfRBNt3ZhyeNxnZYkZvjr/gIW7PwOYrHQqYjExKrin54pPcEEHLuRWHukmg7iw2YzQkeyafyLgFV3vmVEQaj9FW7SM3FE8/uI3P1z8tp4TOjOy+NdSAK7Ucxqch/VEUDi6Xy3rEPZ3HVP9LULhm9//6qFvcjo3yTBM75oPxLxkkaMtq15BOuh3CASIAoFNwqvnJeBqa4mvIQOQDV/o9flana57Bx72wAAZq+f8e82DNT1ddlZoD2k/qIIVPJlYE2mtaWwArk/D7neprinORByj8g2p34Wiwm6Ymx7C715SWPuM/O9CALtAE94gvNkoBt7ZNdvBNV+CftIrke2v500bkwccAn5YJnEzmINnnyEAMj4G3NWQrEnMilth7smwcKMu9fEh0rZ1KxWPsGCFdLd4YINW3yE4LM9GmEHuXv5vbdIDEj9NPlX77leSxC7j8AooDnMESygXTXSDw8LrO/HukgJSf14/Lgfp8jNM/sFL92Kuvl3scBZ8QA+RCxwFsZDwl/IubFg8GIZc5ahNvTbCmG3GlgAgbGIm5jLDXJx4TOy9N+ueFPLHjXBPFXcMOoI6v1Dzp9d029KgXR8jEUYK8tD1IqAAB7anf//ezWq72TH3R8QvRkGZhocggXgj4Nbez5EYRGyyX2l26FXKaPM+JssgXAuYAsQOv0yJcirKX7xxtTuIQCi+g9+/m61NyfjiUDvB26iISrD/2Rr9bqmgwfpLaYCzT+3vdGcCklLJ+mSpPn7s5GtN5Knu+2Y1Rr9/nZRNnv+VCHLsKfJ+9V47gaEtfGqCMSTzSA8sm79Y9x5ICnZh0TcnaYmocvJZhEMWTdLkeZactQeT2sdWC8XbU/b+wkmoNMVBO3KRXryvI8FIPfjmJS+YyHr+88rcf7mJagXo/Ge+tTQ8PcehHZw5tHal7/kkf7tJVD8tE7IjWMJBBMsmLm90ivt6IP2F8D8vu3vYRELtW9e9Ia6YtbSh/0Vr8o4vxFqLAYfWPFiXiArn/gbVVqxo8d71/1+dq/g5oycQ6Z8xOdzm2rFFmV/+E8TVqDkq1bIsirn/6UgqMaHKaO4ulZIuGETAKEzh0VLfdB6gdMzZCePTk6PwsjL1SC3fZuwWTYXJrNTwY1PyA3ivvTR/q0FCJAsLZkuXReqRnkpS2beAStetWd99/bm540lLYBAQPxkDUz2O4HSeldzJWCSZXxhb4cxMp0Qq7yUH3Y+4sudMUhOVlToj0cK0siKtWNkD4hL2Vy0e0B+tggsazrTWQNHvyK3EzgYHUkMeuD5yLsCZitiKRJ0Rb32fLNG9tT6nLXaD0FIu1CAcHKjnwcv3t7GFKA+QKXG6+S/BjEdQRH93QG+chsgd6gZJjactC7JtncPt/FdrfyW/5c+uv9ZAZS382dDM7J/KlHRQlRleJEVxn7y69IUAO3GdGO3SENzs4kNmI7qkqLwyHzg1Zs7grFoTvb3yhA4yIMmhuTRAEoFSeL4z1obsVACYLk43eyM/BGZPqKJluT3xKT6lYQRAJM7/iz6uxLxX2hky1+HagAWiT1Xy7wXDGI2RE2GD72TOhGBW1rZXhpWU2634S9YiNxVk/zD7qROxUSDbKLEhpdWVla2o4PEuttv3LGZSGJB7hX7mQKEuDH2k7eYcxWwjmyviBuPrt1cY2o4pa8DCwqpzYCvJNE0MeCX1tbWltbkQb63amiZvvTAW6ljAQEsMpnIOK42ujiaDvj0iifRT9llbgEFIN3bSyAyYRgBV5Fp5Favnw6U9G//Bn9/FQFUcv1D/GLMvmi3/HVkaYBCSnXdKH6AYGTItumRwVcSU1kRxn2C0XP7zQDdDPKLB98N8IXcieI2sScWVlaWtleW9xKYhTZ8ujmVhPhV6AVA8ZzvJ710PRlf2V5ZW9P3vvU419hpDL4WLKRmQAMiHsHYYwqFwsr2WtknGG746+AXQa5Fj3MxbB4+wVAwDV0pPC5QXwkWQlgLkIrI+O/xE42cu14dSF8Jv6AoPkVO/Z3cdGY2dPfxQ1pM9GHB/ELcS2WN4gew8Cj53lfCL8jmnpyur8WH+XG67vOLIPlKfCX8whfHljgxWS4X5NK360a3MbOZyNeGBRBL2dQzpMdX9KQeDhcKaimxvpprTPjFItw1968lkPfS9Uyju5r9tjqU4kvhQrwQXiu/zfeyN9n015Gb+cIPSDTNkFsLeyyjqRnZXn4gl1WGU3WVWryNbD9d+EMCg88tggSj+dRGAqK+lj67J1zvA+SiuwLvfROJBRc4+ED9woh/HW2ioPDLnWov63ab9JSEkvt6RXbUB72w6r3CQsgrejpe0IfV1PqNV9Qh7iMlfh1l3zkhd/Twtk7mFZELh9eiVCmRdVeVz9ks6YEIwHrC6ar+9XmLD8hXM7P2EcJ++n6+f5e/y9/l73Jf+W86OxV88Stt1QAAAABJRU5ErkJggg==;fontSize=16;" vertex="1" parent="1">
          <mxGeometry x="629.15" y="470" width="98.89" height="70" as="geometry" />
        </mxCell>
        <mxCell id="mDin6mMPrwB7ljJCuVws-26" value="ALS Model" style="text;html=1;align=center;verticalAlign=middle;whiteSpace=wrap;rounded=0;strokeColor=default;fontSize=16;" vertex="1" parent="1">
          <mxGeometry x="752.5" y="490" width="157.5" height="30" as="geometry" />
        </mxCell>
        <mxCell id="mDin6mMPrwB7ljJCuVws-27" value="" style="verticalLabelPosition=bottom;aspect=fixed;html=1;shape=mxgraph.salesforce.apps;fontSize=16;" vertex="1" parent="1">
          <mxGeometry x="661.5" y="580" width="34.2" height="60" as="geometry" />
        </mxCell>
        <mxCell id="mDin6mMPrwB7ljJCuVws-28" value="Azure Databricks Compute Apps&lt;div&gt;- Streamlit App&lt;/div&gt;" style="text;html=1;align=center;verticalAlign=middle;whiteSpace=wrap;rounded=0;strokeColor=default;fontSize=16;" vertex="1" parent="1">
          <mxGeometry x="735" y="560" width="185" height="110" as="geometry" />
        </mxCell>
        <mxCell id="mDin6mMPrwB7ljJCuVws-29" value="" style="endArrow=none;html=1;rounded=0;fontSize=16;" edge="1" parent="1">
          <mxGeometry width="50" height="50" relative="1" as="geometry">
            <mxPoint x="530" y="290" as="sourcePoint" />
            <mxPoint x="570" y="610" as="targetPoint" />
            <Array as="points">
              <mxPoint x="570" y="290" />
            </Array>
          </mxGeometry>
        </mxCell>
        <mxCell id="mDin6mMPrwB7ljJCuVws-30" value="" style="endArrow=classic;html=1;rounded=0;entryX=0;entryY=0.5;entryDx=0;entryDy=0;fontSize=16;" edge="1" parent="1" target="mDin6mMPrwB7ljJCuVws-22">
          <mxGeometry width="50" height="50" relative="1" as="geometry">
            <mxPoint x="570" y="410" as="sourcePoint" />
            <mxPoint x="890" y="490" as="targetPoint" />
          </mxGeometry>
        </mxCell>
        <mxCell id="mDin6mMPrwB7ljJCuVws-31" value="" style="endArrow=classic;html=1;rounded=0;entryX=0;entryY=0.5;entryDx=0;entryDy=0;fontSize=16;" edge="1" parent="1" target="mDin6mMPrwB7ljJCuVws-25">
          <mxGeometry width="50" height="50" relative="1" as="geometry">
            <mxPoint x="570" y="505" as="sourcePoint" />
            <mxPoint x="890" y="490" as="targetPoint" />
          </mxGeometry>
        </mxCell>
        <mxCell id="mDin6mMPrwB7ljJCuVws-32" value="" style="endArrow=classic;html=1;rounded=0;entryX=0.015;entryY=0.483;entryDx=0;entryDy=0;entryPerimeter=0;fontSize=16;" edge="1" parent="1" target="mDin6mMPrwB7ljJCuVws-27">
          <mxGeometry width="50" height="50" relative="1" as="geometry">
            <mxPoint x="570" y="610" as="sourcePoint" />
            <mxPoint x="890" y="490" as="targetPoint" />
          </mxGeometry>
        </mxCell>
        <mxCell id="mDin6mMPrwB7ljJCuVws-33" value="" style="endArrow=classic;startArrow=classic;html=1;rounded=0;exitX=0.5;exitY=0;exitDx=0;exitDy=0;entryX=0.5;entryY=1;entryDx=0;entryDy=0;fontSize=16;" edge="1" parent="1" source="mDin6mMPrwB7ljJCuVws-25" target="mDin6mMPrwB7ljJCuVws-22">
          <mxGeometry width="50" height="50" relative="1" as="geometry">
            <mxPoint x="840" y="540" as="sourcePoint" />
            <mxPoint x="890" y="490" as="targetPoint" />
          </mxGeometry>
        </mxCell>
        <mxCell id="mDin6mMPrwB7ljJCuVws-34" value="" style="endArrow=classic;startArrow=classic;html=1;rounded=0;exitX=0.424;exitY=0;exitDx=0;exitDy=0;exitPerimeter=0;fontSize=16;" edge="1" parent="1" source="mDin6mMPrwB7ljJCuVws-27">
          <mxGeometry width="50" height="50" relative="1" as="geometry">
            <mxPoint x="840" y="540" as="sourcePoint" />
            <mxPoint x="676" y="540" as="targetPoint" />
            <Array as="points" />
          </mxGeometry>
        </mxCell>
        <mxCell id="mDin6mMPrwB7ljJCuVws-35" value="" style="outlineConnect=0;dashed=0;verticalLabelPosition=bottom;verticalAlign=top;align=center;html=1;shape=mxgraph.aws3.tape_storage;fillColor=#7D7C7C;gradientColor=none;fontSize=16;" vertex="1" parent="1">
          <mxGeometry x="556.04" y="164.5" width="75" height="39" as="geometry" />
        </mxCell>
        <mxCell id="mDin6mMPrwB7ljJCuVws-40" value="" style="rounded=0;whiteSpace=wrap;html=1;fontSize=16;" vertex="1" parent="1">
          <mxGeometry x="568.6" y="761.5" width="220" height="178.5" as="geometry" />
        </mxCell>
        <mxCell id="mDin6mMPrwB7ljJCuVws-36" value="" style="shape=mxgraph.cisco.misc.tv;html=1;pointerEvents=1;dashed=0;fillColor=#036897;strokeColor=#ffffff;strokeWidth=2;verticalLabelPosition=bottom;verticalAlign=top;align=center;outlineConnect=0;fontSize=16;" vertex="1" parent="1">
          <mxGeometry x="675.04" y="780" width="53" height="53" as="geometry" />
        </mxCell>
        <mxCell id="mDin6mMPrwB7ljJCuVws-39" value="" style="html=1;verticalLabelPosition=bottom;align=center;labelBackgroundColor=#ffffff;verticalAlign=top;strokeWidth=2;strokeColor=#0080F0;shadow=0;dashed=0;shape=mxgraph.ios7.icons.smartphone;fontSize=16;" vertex="1" parent="1">
          <mxGeometry x="647.1999999999999" y="791.5" width="18" height="30" as="geometry" />
        </mxCell>
        <mxCell id="mDin6mMPrwB7ljJCuVws-41" style="edgeStyle=orthogonalEdgeStyle;rounded=0;orthogonalLoop=1;jettySize=auto;html=1;entryX=0.482;entryY=1.017;entryDx=0;entryDy=0;entryPerimeter=0;fontSize=16;" edge="1" parent="1" source="mDin6mMPrwB7ljJCuVws-40" target="mDin6mMPrwB7ljJCuVws-27">
          <mxGeometry relative="1" as="geometry" />
        </mxCell>
        <mxCell id="mDin6mMPrwB7ljJCuVws-42" value="&lt;b&gt;End Users&lt;/b&gt;&lt;div&gt;Opens the app to show the recommendation and submit rating&lt;/div&gt;" style="text;html=1;align=center;verticalAlign=middle;whiteSpace=wrap;rounded=0;fontSize=16;" vertex="1" parent="1">
          <mxGeometry x="588.6" y="840" width="191.4" height="90" as="geometry" />
        </mxCell>
        <mxCell id="mDin6mMPrwB7ljJCuVws-44" value="" style="endArrow=classic;html=1;rounded=0;exitX=1;exitY=0.5;exitDx=0;exitDy=0;entryX=-0.062;entryY=0.547;entryDx=0;entryDy=0;entryPerimeter=0;fontSize=16;" edge="1" parent="1" source="mDin6mMPrwB7ljJCuVws-24" target="mDin6mMPrwB7ljJCuVws-23">
          <mxGeometry width="50" height="50" relative="1" as="geometry">
            <mxPoint x="740" y="580" as="sourcePoint" />
            <mxPoint x="790" y="530" as="targetPoint" />
            <Array as="points">
              <mxPoint x="990" y="410" />
              <mxPoint x="990" y="511" />
            </Array>
          </mxGeometry>
        </mxCell>
        <mxCell id="mDin6mMPrwB7ljJCuVws-45" value="" style="endArrow=none;html=1;rounded=0;exitX=1;exitY=0.5;exitDx=0;exitDy=0;fontSize=16;" edge="1" parent="1" source="mDin6mMPrwB7ljJCuVws-26">
          <mxGeometry width="50" height="50" relative="1" as="geometry">
            <mxPoint x="740" y="580" as="sourcePoint" />
            <mxPoint x="990" y="505" as="targetPoint" />
          </mxGeometry>
        </mxCell>
        <mxCell id="mDin6mMPrwB7ljJCuVws-47" value="" style="endArrow=none;html=1;rounded=0;exitX=1;exitY=0.5;exitDx=0;exitDy=0;fontSize=16;" edge="1" parent="1" source="mDin6mMPrwB7ljJCuVws-28">
          <mxGeometry width="50" height="50" relative="1" as="geometry">
            <mxPoint x="740" y="580" as="sourcePoint" />
            <mxPoint x="990" y="510" as="targetPoint" />
            <Array as="points">
              <mxPoint x="990" y="615" />
            </Array>
          </mxGeometry>
        </mxCell>
        <mxCell id="mDin6mMPrwB7ljJCuVws-48" value="" style="endArrow=classic;html=1;rounded=0;fontSize=16;entryX=1;entryY=0.313;entryDx=0;entryDy=0;entryPerimeter=0;" edge="1" parent="1" target="mDin6mMPrwB7ljJCuVws-10">
          <mxGeometry width="50" height="50" relative="1" as="geometry">
            <mxPoint x="530" y="290" as="sourcePoint" />
            <mxPoint x="490" y="300" as="targetPoint" />
          </mxGeometry>
        </mxCell>
        <mxCell id="mDin6mMPrwB7ljJCuVws-51" value="Azure SQL Database" style="text;html=1;align=center;verticalAlign=middle;whiteSpace=wrap;rounded=0;strokeColor=default;fontSize=16;" vertex="1" parent="1">
          <mxGeometry x="1028" y="560" width="112" height="80" as="geometry" />
        </mxCell>
        <mxCell id="mDin6mMPrwB7ljJCuVws-54" value="" style="endArrow=classic;html=1;rounded=0;entryX=0.037;entryY=0.521;entryDx=0;entryDy=0;entryPerimeter=0;exitX=0.924;exitY=0.495;exitDx=0;exitDy=0;exitPerimeter=0;" edge="1" parent="1" source="mDin6mMPrwB7ljJCuVws-23" target="mDin6mMPrwB7ljJCuVws-52">
          <mxGeometry width="50" height="50" relative="1" as="geometry">
            <mxPoint x="920" y="600" as="sourcePoint" />
            <mxPoint x="970" y="550" as="targetPoint" />
          </mxGeometry>
        </mxCell>
        <mxCell id="mDin6mMPrwB7ljJCuVws-55" style="edgeStyle=orthogonalEdgeStyle;rounded=0;orthogonalLoop=1;jettySize=auto;html=1;exitX=0.5;exitY=1;exitDx=0;exitDy=0;exitPerimeter=0;" edge="1" parent="1" source="mDin6mMPrwB7ljJCuVws-50" target="mDin6mMPrwB7ljJCuVws-50">
          <mxGeometry relative="1" as="geometry" />
        </mxCell>
        <mxCell id="mDin6mMPrwB7ljJCuVws-56" value="" style="rounded=0;whiteSpace=wrap;html=1;" vertex="1" parent="1">
          <mxGeometry x="1250" y="380" width="260" height="520" as="geometry" />
        </mxCell>
        <mxCell id="mDin6mMPrwB7ljJCuVws-52" value="" style="image;aspect=fixed;html=1;points=[];align=center;fontSize=16;image=img/lib/azure2/general/Dashboard2.svg;" vertex="1" parent="1">
          <mxGeometry x="1284.5" y="484" width="68" height="48" as="geometry" />
        </mxCell>
        <mxCell id="mDin6mMPrwB7ljJCuVws-53" value="Tableau Dashboard" style="text;html=1;align=center;verticalAlign=middle;whiteSpace=wrap;rounded=0;fontSize=16;" vertex="1" parent="1">
          <mxGeometry x="1380" y="490" width="110" height="30" as="geometry" />
        </mxCell>
        <mxCell id="mDin6mMPrwB7ljJCuVws-49" value="" style="verticalLabelPosition=bottom;sketch=0;aspect=fixed;html=1;verticalAlign=top;strokeColor=none;align=center;outlineConnect=0;shape=mxgraph.citrix.desktop;fontSize=16;" vertex="1" parent="1">
          <mxGeometry x="1284.5" y="591" width="89" height="98" as="geometry" />
        </mxCell>
        <mxCell id="mDin6mMPrwB7ljJCuVws-50" value="" style="outlineConnect=0;dashed=0;verticalLabelPosition=bottom;verticalAlign=top;align=center;html=1;shape=mxgraph.aws3.users;fillColor=#ACACAC;gradientColor=none;fontSize=16;" vertex="1" parent="1">
          <mxGeometry x="1296" y="717" width="66" height="63" as="geometry" />
        </mxCell>
        <mxCell id="mDin6mMPrwB7ljJCuVws-57" value="&lt;font style=&quot;font-size: 16px;&quot;&gt;Marketing Team&lt;/font&gt;" style="text;html=1;align=center;verticalAlign=middle;whiteSpace=wrap;rounded=0;" vertex="1" parent="1">
          <mxGeometry x="1420" y="687" width="60" height="30" as="geometry" />
        </mxCell>
        <mxCell id="mDin6mMPrwB7ljJCuVws-59" value="" style="endArrow=classic;html=1;rounded=0;entryX=0.645;entryY=0.91;entryDx=0;entryDy=0;entryPerimeter=0;" edge="1" parent="1" source="mDin6mMPrwB7ljJCuVws-49" target="mDin6mMPrwB7ljJCuVws-52">
          <mxGeometry width="50" height="50" relative="1" as="geometry">
            <mxPoint x="920" y="590" as="sourcePoint" />
            <mxPoint x="970" y="540" as="targetPoint" />
          </mxGeometry>
        </mxCell>
        <mxCell id="mDin6mMPrwB7ljJCuVws-60" value="" style="shape=image;verticalLabelPosition=bottom;labelBackgroundColor=default;verticalAlign=top;aspect=fixed;imageAspect=0;image=data:image/png,iVBORw0KGgoAAAANSUhEUgAAAaIAAAB4CAMAAACHBwagAAAAjVBMVEX///8AidYAh9UAgtQAhdUAgdQAftMAi9fu9/xDnNyZxup0s+QqmNstlNng8Pr5/f5Jo9/L5PXX6Pbx+f212PEVj9jo9Puv1O+Owulor+O82/Kfy+xequGp0O6DvOfD3/Pe7PgAeNFjrOJ8ueZwsuRGoN3T7Pl2sePU5PWnzOxcpt9+teRotOSUwunL4fT58LUEAAAO4ElEQVR4nO1d22LiOAwltsOtkACFAC23hdLdobPz/5+3ECzHTixfSFJmNjlPLRBjrEiWjiSn06kB8bKOUVtUh/549uwptDBiSi7PnkILI+a02yrRb41dyCbPnkMLA+JjGND9s2fRAkd/zAIyePYsWuCY9kgQ0Pmzp9ECxZJeJUTG8G/8+szJtNBgF14lFNAt/P+2fuZsWhQQb+hVQAFZxPDKOmyd798JyYjdJBTQd3il32PnZ86ohYpZQFIJESqUaEmDsPUcfhts6V1CAV2J1wYkIL3YcFGLb8Qq5BIiJIHXkq4qsRZPRHwJAw52Eq8O072JRk+cWAsOcBRuCIUSdUapYpHNE2fW4o4pIUJCLIuE/qF8c2oJu2djyTIJBTQLhE5ctcjoiZNr0QFGgUO2agG8ngVKLZ4AzigIJZqKd96EB0FYS9U9D33JUbgJQ8pCbKQN6uN5M2w60tSDhDDzDPpE3qGmhkFa1IglVSUkOwZbirzR4huhOAqpskjFc2eCvdPiuxAfqSqggCyyd5Mw91brMXw7EtVRSFVlm729yr1Ld8+bakMxyzkKN00JJFJ7nH+bJvhgLWpA3lFIhTDM3p/mjWDQ1qd+L1Z5RyFVon72gVPBCrZU3bfiEhYEcI1Ppd0mLppBqS6oRd3oD4oqckVXUqI3nQxbqu67MAuKGnJTohfpMxfdRwjpo4O2qBBzppVQwA7ZZ/paNVOl2KIu6ByFVEWO0od+FPy5O9qquvpRZBQASkPRWS/Gthy/fvSLjAIsvlzSGGFybOvx60Y+9SCbMDnbkCd/JEku6qqqizeTO472z/5/sdcwCloLhkuyvqq6fUju6DY4NRUvDCsvG7Ai+SOrW01U3Ro0t8kZ3hW+8nIWotP5QO3cbQXrMUSvYnKENbZCOdERBqAacsLu1aBtQV1U3Xt2/8gpkWbhiOuG6gTMTXauLqpukN0WpKn9MnvDwqvkm5b8kRDWQNXN5NnRhgbII3zhCZGT3q8Gg3j/eK/6HPnuruL3ObJmJnjfDQvPFEf63WzngjqoOp77IPddkLCqx/8T8GoIdQhTCOyBxc5dEVbdzsJzH+TeLROEbxWP/ydAk0TNlEKxKzOTxw1CrXpDn3Al+uT2roHH2xwMxoswRSdw8kcCrfY2T4RkuL9Pmtd1hjHXqRKpRyuYgyIQa7VU3Up0qnO3oXnNm28mD6Cr3LFTmz8X1LCGvCCsm8DXq2xHAxAXauJkhVDbJNcudu5mHSuk6kAu54xHDBvGpQ5NSqT2PJg8PwWswpNn+G2Rlo1DgNSslEQfz0EUnDML+YOKtgxiLpXezffnNAMJGlX7arRdoUqK2sgfSbaVtbPwLhmul9woN6ogzJj9yXGiibMSVUhIc3eTM+jcKv+xDU1x9PkZefq7BnIuyJ/wYyd/JOlWRNXxmI307v9CzuS3PD832X5dJpfjaan96cnyZcS64RXd3mV4cB51aVYiVd5GceZRUTsLdxAExzHhXCpKBO4GLhgJVuuDv/ALGzBaf9zw82d+4S/8ygP/3IZQdsvds66mymafvgsLe/175Ng1Z87P5YzVzEOJgnxE9Sj4z6IH/v8cHAZMSdeUOCAjHs/pspIQTUV+dlmKQrHtmF95V+hVKLp/i4VQ01FIcitNwoUTCWPIht9krX545xYUicuraGcBBlXUt4Dfj7ZuGvP2Ym6ZGeZqSVEt+gRTWxARvzIV0VpaybyI4g9tASkJHUKTyEgWyA1FHXP9iRZVMNKXggfHRYBytS8uIpKmNlHcEQ2cRKQcT5ET0ayHTYmNrcHDxrToSkNRx5yY1Q9QPkeecPMg9QACB4Wd4PW3g4iotJNVIiI1/FdFJB+hxM1s9v/CIiMjOVfIbs7d+Dl5qkP997oDfGw5/bAwJ1+/mLTl6OeluOxViAgil+seR/KHZGfliYTR3nhwHoyDjC2w9XGbPbQCz2bcuLRLEZRtZ+GroDj/K6Ab9JecSK8nJsA46A1MvCorYBUiSv8iNByt//44s1Ce7ky4cYycft2HSN4uYnMyV7WZwxyNW4sW5aNjlKxLBAZVboTuHPhSe2elIr4soeKolhfRYXubJh1v+SzfRpmIhMtM2E7+EZ+ifD40ON99zA7wS4u2Ptb375kGKRdhctcgd7dwvsH7rEJuNHL3bQVadP2DhHL+JTNeFzgRbpEnLcEFNJ0ua3Z9tFx139epK9fOIhxs9efB2TaeGY8XvtQ5628V0dQiIja8SojpVRr2b7IomvwNWAN0x7YEovpqtRnSw4cPU+bkmSUsqvpyDD6dlzcCq5VXbBARajZtIroVJoV6RhLiFNLTuJ+xuB5TI3MpD1bC4Z6OCCzf7wBu0Vg+h3uE3+YxlnDf83ItLaLbDBGbC7u9PgW5h5sGUWCLC43mNYeerncJqg4C68KuKH6bR1KK35HFW68CEaFJZl6cia0BzEnvVBmz4cY95MNTjx4/eQa868JcYPIeDiMPGHJFgTdUICLpYGwFcyi1QCwJmCS9NbDEOCaHduLn1mFGwA5uyDWZp52ciXXBvst/V9GmXCoQEUJ0TNAfcIeoM9C92TebKyN1ozu6xIRHc+SccJKO1xcAV8c1bwjRCdXc7uVFhNGFfPsjBN2ONwYRGVpV0vka/bBIf3gGhkdLqsAp0GkhD3Fck69c8bUf35QWEbZakNJHzGAHnhegFZExG36L5tFBU4DZcMRjhQZw/oaWLwdXyS0n9Q4bke7T5UUUIjTbmrNXeFMcMNOatyzpU+uabr3cOvctQwasq95QcxfacIdmALOop1pKiwh1rXo2O9f5RLXIssIOZQcnL7fOaSHzGBuFsLGFfRkgfkQISxARemSElV1Afl1ytzWmJoQIE5GtYLEQKmpw8XLrHsiRgy1GevIgj+JwGAevQsOkWVpEmM3h0RsZv6A4Yu6CLcGN2VYZlrgqhwfaTU6GHb6TuZX2kaGABnMsy4sIMZHwxSIjUgSsYf5Sczbc1SwlXq6398kzoOlXjY51EC1RtoMeIr4OIUbo1SaiobuhyV86sawtFojlZ46cuaWFN1UnKOLeYjHWATh3m1WGDASqbcfSIkIKUzyqcXJXmrPhHqyKsQQvD992FtHyhJZZwfvmqOsE64sq29pSUWQVUYiIyNT6mIN+YHwxD8bfLGHl4XrrOAIDTAd15OdrOosDTgjt4h8qL6J/9Nc5lSLdoV5obFUJ/KrfNh5unV87i1O/Jp+wIfkP4ZOO+AHUJiLxCC47tJNG4ZPKjh3ax7OBPag6L3+xSF4LQArdlPutTUTA9X4kURGJAuU6m/b5ucd9D7bOp5lh78Ne4FwIZCCMpwzIHWZaPCqiobbwwgprWbbnKUszm1LKQ7u3s0BIZwgpsqgCpeWnnEpEstYc5UWE2B1I63t2FNosk3ffjkf9o/uDlKE4gVyGBryD14cQEK9m4gfAq4zwG+hRLYJkil+FzdK2oP5l2KajaXJwpupEyv9g/BjwxIgpuZiJH8DP/MPt80BFNDKLKNIVAdpgLZx/pArbI1HumiOHnL5FpbP6Gt0ibB0LHLjjhYfAc4uIKCKiDtxoPrWEO+tO9Ej3o3ui3NEXETlVWxEWuOa6afsOQtCg4APLwoOIMBFgBUwGWFtVH6uo8mhqcXNGgDmxMlER9wd05h6SOdbziH5YumdFuZu3iMDr9sg6WyPNBzsZImdG1W22xCGauQO8n+KmBbe+vfAfCDEsvJoKttBXRL+gJNPZS7Zkw4PHT4adOifKXW4CIG0crK4oHc4XqkH5k0NpPhD/GI8Khx74iwhcSvdY0xqx+xhNFVtXl8HlTAtg4h2euQwpi7yFjhyIHwFI6+iZrwRuP38RCZ7A1U+21ht4Mp0Kdq6ut51HhxYTp5BvrV8ER5fwDrgl9P6maGR8QEQH2CvdIkL78T2lDsx0ZlStLujQ3UZl5l61JTuowDu4TB2+UEv0ZvbhARGJlAozcNNTYfvt2YtumXN1nBlVqxMwNgU7BcCNJz+jDEJaM/EjIA5M1HBAU6nl8QERie2foiZh1f3if+FPSwGUPKe+7+rWWXLk4EA5ZhYhNGKZH/IKBVyulcpwr5NCecP+NhS8+4CIshMG6EAbQczHVHAutmy4+Ztc4Np6ZAm+xO7ilruAW0/iRaD01JkpEU8GJCoLFKfP22JQD/aIiLLiasJWefen/2N8/QLGtciWDfdL5enh2npkzJGDCjjHe2KzB5EOhdAGg8EZMFFxVly9rAuFDuZwA72+L2g6zOej7MINkqWkwUm67aLt5N44zkXkkCKr4KBEW0IX1sHEGohIxzUAWOY2+08RoxnPl1FuSClFQyg9f+12u69BeF/ccJbYODqj+ZFSAYRRdh/8OGDX4bk9/nJcvEpOD3NkVE27niXBUEQMGSua3v6O+dqczVCqMIicjArfwZYWRTRwEVFn2ZVmRPjgUprt7kgbD27kU6nk3GZHRhWrmbl6V+BEuydZYEemP27/OTr/ebP+gsR1t+q7kiLq7I2pacZSv9Nei1LREXyOjCr+bcCgerCFU5lLfXOkogo776mrmTnp3tyHsiLqJAOs5JCQ7ia1+rOutQTFdD6DDxwZVTR/Bgaga2U/M4wk2+jKRBWdo7dF3tSQcJQufmkRXY1dYfB0REqO/Nqfo/vRdgacqzr73OWBBXjvxfyv7h0+yeQVXHQ16j/gbxuKOYp4GIQMbpHrnhEueOQb8TFpwV0I09f/ctg24+WoS6X6zOv4tDsafvchvHF/tt1NeqhcZPyeD1Ke7gYLQsMwZL3xS9VPM4veL+OA0fB2GBFZDF6W3yyfw9vqOCIhdT45o/Kns1SE1+gwm82iepYvTqLDDVFS/SOeDN/a379/jBijiiPpYOoa+PSU70d/ttxdxtRDdWRU/HSWFiriaP7v5mq1KfPSHFWNmvZojm9D9Gv4MghCX7umU6PGPeGmdsTT7elcUnUUNSqR5G2Rw+thvjqOw7Aq4XBU+XSWBiPZv69HPVaxcDia9hSiqpHMrnaNdCvYdFD8sc/meD4+57vJOKjarmlQ6sjHZuI12g/XfNOpWTop6niQ8v8X0dv7x2DBwto1R4FTKWID8B9vA8bezreWngAAAABJRU5ErkJggg==;" vertex="1" parent="1">
          <mxGeometry x="1040" y="691.39" width="120" height="34.45" as="geometry" />
        </mxCell>
      </root>
    </mxGraphModel>
  </diagram>
</mxfile>
